<?xml version="1.0"?>
<svg viewBox="-74.18026900000001 3.301555325303067 21.128238000000007 8.854501092670127" xmlns="http://www.w3.org/2000/svg">
    <path id="AR-T" class="regiao" data-nome="Tucumán" d="M-65.1692,5.076080661782251L-65.2591,5.076633684344108L-65.3419,5.0661287015519365L-65.5046,5.087736667568698L-65.5656,5.103868026415426L-65.6484,5.088151659733242L-65.6993,5.058707236899482L-65.8347,5.054366082532943L-65.9274,5.026642871092099L-65.9858,4.981486642205317L-66.0977,4.965486053836523L-66.1889,4.961104653271692L-66.1421,4.941899754376518L-65.8693,4.879022445953016L-65.8679,4.838896667339016L-66.0232,4.818197263538194L-66.2145,4.80894732239226L-66.2178,4.779642045654558L-66.1528,4.7468334844067765L-65.7203,4.7609051424495L-65.6638,4.716578875369583L-65.4418,4.725713227992781L-65.3115,4.717414418971211L-65.2722,4.734559559544059L-64.9385,4.755785392329517L-64.8064,4.743428797386294L-64.4864,4.7449462517636105L-64.5253,4.7868137195578875L-64.4963,4.833778610775847L-64.5874,4.834149727990702L-64.6674,4.857953225893828L-64.8145,4.933147294884747L-64.8876,4.960554584537752L-64.9386,4.962872825432674L-65.0627,4.989550373003391L-65.0656,5.022879528160632L-65.0025,5.050420341139432L-65.0721,5.071735982453204L-65.1692,5.076080661782251Z" />
    <path id="AR-V" class="regiao" data-nome="Tierra del Fuego" d="M-68.0666,11.495938460669793L-68.2456,11.486756904662547L-68.515,11.49863666338189L-68.6358,11.47809680197572L-68.6292,11.241178304949198L-68.6239,11.028751799502746L-68.6186,10.847412163452454L-68.3322,10.91737092053407L-68.2575,10.948102782071318L-68.3918,10.952279558448597L-68.5436,10.985045961904081L-68.5436,11.015040839613269L-68.4306,11.033451999098382L-68.1798,11.031583384703385L-68.0867,11.061953855989577L-67.9703,11.126094598473982L-67.5856,11.191810265295521L-67.5636,11.217625391513L-67.3592,11.25035650549017L-66.6856,11.330995595347822L-66.5496,11.364809074666955L-66.2417,11.402505699997011L-65.8075,11.438568333021838L-65.6736,11.443276045002158L-65.3303,11.431962478459521L-65.1401,11.437271012246574L-65.3506,11.520395619081176L-65.6031,11.52158027218405L-65.9361,11.511529555754505L-66.0099,11.52853863070127L-66.352,11.53702164186031L-66.4461,11.558087417973194L-66.6529,11.54980289088673L-66.8217,11.524010689365483L-67.0113,11.514565154660783L-67.4889,11.505126914467315L-67.7142,11.508009205244232L-68.0666,11.495938460669793Z M-64.6783,11.51414012542293L-64.7506,11.49460473761238L-64.3375,11.459797517275554L-64.0114,11.475161025363594L-64.2575,11.494059165548807L-64.4228,11.493665156414107L-64.6783,11.51414012542293Z" />
    <path id="AR-D" class="regiao" data-nome="San Luis" d="M-67.3607,5.9825218062430245L-67.3864,5.968491549299233L-67.3879,5.877580551002996L-67.352,5.869134005607912L-66.9711,5.877930002648251L-66.7305,5.874949592784255L-66.5767,5.8835221067625625L-66.3629,5.887347071151766L-66.1994,5.884180110051558L-66.0575,5.873942525841626L-65.8696,5.88091088187248L-65.7596,5.876778892191586L-65.6361,5.877991671255351L-65.31,5.912331207916974L-65.2489,5.9241144618139305L-65.1955,5.9675414267571565L-64.9142,5.9652489385032625L-64.8738,6.0149205519806035L-65.006,6.107317089737807L-65.1305,6.149569883045938L-65.0847,6.3351380616850435L-65.0867,6.528791933125837L-65.0879,6.743250972991869L-66.6173,6.742776349737831L-66.6357,6.7362192742578575L-66.5189,6.631839727724246L-66.5078,6.555680879051041L-66.5407,6.51499042188484L-66.5922,6.488164063591338L-66.7433,6.444534027843045L-66.8114,6.398875548122063L-66.8236,6.3664187721237795L-66.7589,6.3505289826084885L-66.7665,6.318602351184463L-66.9415,6.2784746809267435L-66.9808,6.256513970855301L-67.1531,6.1970646043758055L-67.1924,6.152845006695094L-67.1968,6.102905748561156L-67.2243,6.093316816052095L-67.1983,6.061258254855515L-67.2492,6.040448966140588L-67.3315,5.986987250928434L-67.3607,5.9825218062430245Z" />
    <path id="AR-J" class="regiao" data-nome="San Juan" d="M-70.2443,5.964195727282549L-70.3133,5.958909915368713L-70.3489,5.918221912925694L-70.2649,5.909077692094321L-70.2375,5.887655569742383L-70.3041,5.8761417004283025L-70.4303,5.8733054295132705L-70.5867,5.810768587778291L-70.5603,5.7613846854540105L-70.5208,5.7280701224411255L-70.4514,5.714898971091187L-70.362,5.714593245875836L-70.295,5.7016756691146275L-70.3317,5.681664298649607L-70.2692,5.630233988207156L-70.1339,5.581873387204869L-69.9385,5.568294590195901L-69.8292,5.522103339321869L-69.925,5.493061443340547L-69.9172,5.435364918288904L-69.9686,5.423732962601643L-69.965,5.399666623209072L-70.0347,5.36290967134469L-70.029,5.35069875739933L-69.9016,5.320283248547419L-69.8381,5.31902440707616L-69.7234,5.252196508790603L-69.746,5.226758872076296L-69.6693,5.208009051912153L-69.6554,5.173317503125224L-69.3475,5.188779626480693L-69.1564,5.21667601674565L-69.1096,5.244450459307773L-68.9144,5.2790014404638725L-68.8906,5.313210759098752L-68.9511,5.330696627832721L-69.0267,5.407210621332005L-68.9777,5.419977612781496L-68.689,5.41307119626119L-68.47,5.422829205054425L-68.3142,5.435364918288904L-68.0375,5.4753343678043L-68.0108,5.486613418136574L-67.6511,5.540316446918839L-67.5666,5.569447717125913L-67.3786,5.6023503106156305L-67.2574,5.631451633083047L-67.1764,5.641601618441667L-67.0814,5.674483143032624L-67.1289,5.703264433539532L-67.0599,5.712677477748075L-67.1078,5.7686594953515L-67.0451,5.804460650949349L-66.8519,5.833149901431437L-66.7305,5.874949592784255L-66.9711,5.877930002648251L-67.352,5.869134005607912L-67.3879,5.877580551002996L-67.3864,5.968491549299233L-67.3607,5.9825218062430245L-67.4571,5.961800408789694L-67.5722,5.953501761979808L-67.8197,5.95069509167801L-68.0223,5.914370089611971L-68.2263,5.922610244214184L-68.4685,5.917686318134569L-68.5009,5.937657838930557L-68.7339,5.931678584806555L-68.9315,5.9149879761238955L-69.0186,5.917088941919632L-69.1239,5.894834725716793L-69.4421,5.910889707550542L-69.5986,5.924011429374042L-69.6666,5.95383198612609L-69.974,5.96336972075126L-70.2443,5.964195727282549Z" />
    <path id="AR-S" class="regiao" data-nome="Santa Fe" d="M-60.2944,6.160774491296777L-60.2827,6.173301756123876L-60.4157,6.20499246734846L-60.4787,6.238205860499351L-60.5845,6.240343994178392L-60.6713,6.227770369899469L-60.8464,6.222073206796209L-60.927,6.240805193465672L-61.7106,6.396105105854044L-62.8539,6.397225919603021L-62.32,6.2453129887853995L-61.9353,6.134745298955285L-61.7659,6.108898772018684L-61.7324,6.0728452606093715L-61.8325,6.040117202931289L-61.8953,6.003618035113375L-62.0329,5.975536355299697L-62.0887,5.9488998685853005L-62.2176,5.928421722805364L-62.2128,5.883583793598448L-62.2447,5.843509130254743L-62.132,5.826834563227807L-61.8472,5.640444254325826L-62.0064,5.629564315769753L-62.1893,5.606991464836394L-62.1403,5.58414080233473L-62.0871,5.524626333644946L-61.88,5.292865939703297L-61.71,5.094021700000944L-60.3931,5.0943577445097565L-59.6561,5.094140303339839L-58.8569,5.093784495304337L-58.8911,5.113283637758261L-59.0696,5.1293750095764175L-59.0583,5.178040281880252L-59.0843,5.219141590422389L-59.1995,5.298793611177777L-59.37,5.329876957209229L-59.4889,5.339535159261036L-59.5759,5.371842278017445L-59.5959,5.419314976386842L-59.6604,5.464021409489095L-59.5697,5.497314247406L-59.67,5.547933748735714L-59.6509,5.5612559042954945L-59.5829,5.580355174461172L-59.5858,5.622463136661672L-59.7384,5.669744623953866L-59.9874,5.736883085044369L-60.0633,5.7509064382871555L-60.145,5.782358326737303L-60.4329,5.837354453087613L-60.6494,5.846566693602549L-60.7089,5.93293613193301L-60.6786,5.966983768616432L-60.7445,6.001383185659929L-60.7411,6.026292105794466L-60.6883,6.076667661400171L-60.5353,6.130181496588351L-60.3476,6.147525836079919L-60.2944,6.160774491296777Z" />
    <path id="AR-G" class="regiao" data-nome="Santiago del Estero" d="M-65.1692,5.076080661782251L-65.0721,5.071735982453204L-65.0025,5.050420341139432L-65.0656,5.022879528160632L-65.0627,4.989550373003391L-64.9386,4.962872825432674L-64.8876,4.960554584537752L-64.8145,4.933147294884747L-64.6674,4.857953225893828L-64.5874,4.834149727990702L-64.4963,4.833778610775847L-64.5253,4.7868137195578875L-64.4864,4.7449462517636105L-64.4289,4.708652452619873L-64.1961,4.61904958832158L-63.9245,4.634746556930682L-63.3985,4.636082549399803L-62.7467,4.636953890476341L-61.7158,4.636566623716488L-61.7086,4.860182445817412L-61.71,5.094021700000944L-61.88,5.292865939703297L-62.0871,5.524626333644946L-62.2583,5.446601445684668L-63.1945,5.448933961143419L-63.3906,5.446903048854438L-63.457,5.427830503839456L-63.5999,5.420218576853788L-63.8162,5.422266887417857L-64.007,5.404742461898082L-64.0441,5.3889172603375L-64.2705,5.376650682878741L-64.8824,5.404020130626127L-65.0378,5.350138431609973L-65.0708,5.302945992465223L-65.0903,5.2400709379960375L-65.1808,5.213077597125264L-65.0795,5.18987173463508L-65.0797,5.147143159282756L-65.1692,5.076080661782251Z" />
    <path id="AR-Z" class="regiao" data-nome="Santa Cruz" d="M-71.645,9.062629252504149L-67.5844,9.06283025215196L-67.6188,9.107347895717863L-67.5336,9.169291028775762L-67.338,9.220759174793786L-67.0997,9.254524609797016L-66.8185,9.313552555673557L-66.7096,9.327094374674044L-66.5061,9.328042036267885L-66.1003,9.339777996990188L-65.9893,9.333524395996237L-65.7753,9.366362131976164L-65.7328,9.401184625086785L-65.7553,9.45428416192546L-65.9045,9.525096921408858L-65.7883,9.55717796052927L-65.9675,9.564734484988008L-65.9642,9.598895974442469L-66.0671,9.600882044910202L-66.2814,9.638516066118486L-66.4672,9.678910766299484L-66.6881,9.69408698661108L-66.8257,9.724201112153947L-67.0633,9.740300379768517L-67.2445,9.791127416733744L-67.4045,9.809909247287482L-67.5857,9.84885742138761L-67.6144,9.88367529409443L-67.7907,9.926108456226686L-67.7224,9.939184073226876L-67.69,9.977897488729234L-67.7881,10.080818560348472L-68.0614,10.126749864738576L-68.3783,10.142913108600016L-68.397,10.156152510896883L-68.8207,10.190239140654116L-69.0675,10.249399916949386L-69.1458,10.310376561354433L-69.1382,10.342659709473224L-69.1925,10.372030464286794L-69.1322,10.42490594205856L-68.9533,10.531876496305653L-69.0785,10.542263435732892L-68.9228,10.577163665032376L-68.6875,10.66791211115717L-68.44,10.731091725640534L-68.3828,10.754772817002937L-68.8286,10.741157901393004L-68.9914,10.720179121278505L-69.2336,10.702306207135376L-69.4614,10.702391527354877L-69.9983,10.660596588625221L-71.9106,10.660426510364896L-71.9596,10.620464637378728L-72.0875,10.595002184369843L-72.2893,10.575811999468595L-72.4006,10.5244704359224L-72.3097,10.492427007560053L-72.2496,10.447382764809996L-72.3952,10.411249684278662L-72.2658,10.38420254557662L-72.2426,10.340973131865276L-72.3386,10.307039627277494L-72.2939,10.285329244575685L-72.4913,10.27162749904254L-72.5869,10.287228824608121L-72.7661,10.276468225040205L-73.0522,10.315314599351398L-73.1765,10.309245768107608L-73.2289,10.270252623036814L-73.2664,10.203745665240348L-73.349,10.171124344276073L-73.5225,10.147188563529054L-73.47,10.107293487542957L-73.5542,10.090740371593125L-73.4465,10.05017898806297L-73.5154,10.000043785624555L-73.5823,9.98276485868961L-73.4648,9.92118167064218L-73.1361,9.919254298958514L-73.1768,9.89721662598334L-72.9825,9.832333674156065L-72.7814,9.821621546187526L-72.5521,9.778779839611389L-72.6038,9.704143819609172L-72.5779,9.694350158007195L-72.2919,9.665694926693106L-72.322,9.595107575153381L-72.4783,9.571669372798148L-72.5351,9.552646079841224L-72.4287,9.502091368172138L-72.3296,9.469674879874235L-72.3136,9.425799261083164L-72.159,9.421930134795181L-72.0174,9.387517623275748L-71.8828,9.376023261820954L-71.8625,9.352139847344867L-71.9764,9.325148032659797L-71.9392,9.269385298823195L-71.8138,9.261685299720806L-71.6864,9.240468923641835L-71.6706,9.198666979930968L-71.725,9.171342018369046L-71.766,9.092207451751857L-71.645,9.062629252504149Z" />
    <path id="AR-A" class="regiao" data-nome="Salta" d="M-63.3985,4.636082549399803L-63.9245,4.634746556930682L-64.1961,4.61904958832158L-64.4289,4.708652452619873L-64.4864,4.7449462517636105L-64.8064,4.743428797386294L-64.9385,4.755785392329517L-65.2722,4.734559559544059L-65.3115,4.717414418971211L-65.4418,4.725713227992781L-65.6638,4.716578875369583L-65.7203,4.7609051424495L-66.1528,4.7468334844067765L-66.2688,4.746638917063517L-66.3611,4.774362193294969L-66.4358,4.772803802037916L-66.5288,4.754325600201515L-66.6592,4.710808632660399L-66.7872,4.6816300730929425L-66.8033,4.648071217514848L-66.7422,4.639296992921132L-66.5795,4.63798017880525L-66.495,4.626887063714655L-66.4697,4.601835798237335L-66.5725,4.560613162563408L-67.8069,4.563373231388457L-68.4859,4.540067616600921L-68.3556,4.532105019912044L-68.5674,4.466789653865687L-68.3907,4.413369258052111L-68.319,4.412064997351881L-68.2536,4.3932186244228015L-67.3358,4.321093403697174L-67.2509,4.266027690042684L-67.071,4.286264634245153L-66.86,4.328661429302253L-66.6875,4.342599588363364L-66.5219,4.347457821957644L-66.4968,4.340878398587558L-66.3779,4.27405564161742L-66.3697,4.251808753235885L-66.4055,4.230514579604566L-66.3711,4.1988924382398976L-66.17,4.206499426692734L-65.9846,4.231809234872844L-65.9853,4.26366365735866L-66.0263,4.29069188148404L-65.9545,4.316316810308701L-65.8851,4.31427271191125L-65.7672,4.3298465335620575L-65.7465,4.353598940380863L-65.5845,4.394521868059423L-65.2846,4.412793840223626L-65.1217,4.413791239854293L-64.9425,4.431098863366828L-64.8953,4.428795578832442L-64.8195,4.40356984779056L-64.6189,4.434726984366624L-64.5232,4.411278638955948L-64.4103,4.398355344439305L-64.3263,4.396975222962026L-64.1789,4.364335262406538L-64.1582,4.350958644119754L-64.1814,4.222976446117714L-64.3711,4.222348370671451L-64.4742,4.238740587929104L-64.5553,4.222614824999876L-64.6725,4.211825687253575L-64.8106,4.222881282159966L-64.8815,4.217685878069526L-64.9389,4.189481967699196L-65.0445,4.17211507282477L-65.0085,4.135482179866643L-65.0447,4.125602212674347L-65.1619,4.124388813780319L-65.2356,4.114797401473499L-65.3393,4.034698788291586L-65.2379,3.9972413580443096L-65.1902,3.9555420393058096L-64.9694,3.9579720700860053L-64.5926,3.9778727863524126L-64.5469,3.986810361090969L-64.5261,4.014792867799405L-64.4619,4.034736574841869L-64.4531,4.0592148730552955L-64.3014,4.094886759320196L-64.2799,4.059498540420567L-64.2231,4.034434283970433L-64.1267,4.0150571737025045L-63.9411,3.9378603574481463L-62.8172,3.937220346109596L-62.7924,3.959441498834411L-62.5214,4.007600993111557L-62.3414,4.026387075239687L-62.3372,4.163948769149922L-62.3393,4.3395206565354885L-62.3342,4.392432879075086L-62.6456,4.4653479278391215L-63.3985,4.636082549399803Z" />
    <path id="AR-R" class="regiao" data-nome="Río Negro" d="M-71.7598,8.091601835474272L-71.7878,8.059109579700936L-71.9146,8.010187513369765L-71.85,7.986217479014028L-71.899,7.941344089808016L-71.8614,7.914627722190857L-71.8592,7.861243109344972L-71.5325,7.866772135856994L-71.2794,7.880800346002016L-71.1533,7.871793953273105L-71.0341,7.8409486518431635L-71.113,7.810857141520199L-70.9765,7.779329194893579L-70.8053,7.763417116052787L-70.6745,7.761877370382048L-70.5065,7.743596057424879L-70.3868,7.748876115423313L-70.1803,7.737491812560785L-70.0636,7.709846458112221L-69.9909,7.670869496997772L-69.9867,7.628344678209132L-69.8845,7.609423878645046L-69.3684,7.566453597483362L-69.2546,7.535916776502888L-68.9408,7.509779890470493L-68.806,7.470712164435996L-68.6796,7.452723880393258L-68.6138,7.429851067557735L-68.2542,7.396052562753097L-68.252,7.277316114076829L-68.2495,7.083905577402259L-67.9119,7.088706355180298L-67.7739,7.100890786484049L-67.7105,7.1237196856014044L-67.7625,7.149984790595604L-67.8664,7.16378595436055L-67.8699,7.1862821673933555L-67.7046,7.202753385608103L-67.6464,7.225103855783295L-67.5217,7.239413712558912L-67.1712,7.23059076553747L-67.1365,7.256695766252922L-66.9686,7.280970853312696L-66.7947,7.290824960384622L-66.6064,7.3114891628464225L-66.5618,7.33602621097305L-66.3818,7.345175776432697L-66.2467,7.3401417489129965L-65.9889,7.343945089941246L-65.6722,7.362661767061623L-65.5874,7.354061908476838L-65.3739,7.366918620317572L-65.1656,7.359055532964928L-64.8031,7.36167613145438L-64.4567,7.370705934452914L-64.2559,7.382342428408939L-63.9858,7.407954732176883L-63.8811,7.425509864099845L-63.5065,7.473621969367608L-63.3885,7.476216433863634L-63.3866,7.558694733617575L-63.3881,7.779122140028964L-63.3614,7.793553650140026L-63.1193,7.80083209833693L-62.9263,7.827187819453521L-62.7716,7.869572115502344L-63.142,7.895815133845572L-63.8075,7.8954905834758495L-63.9933,7.870891292577086L-64.7228,7.819873764023696L-64.7776,7.796570562036327L-64.9838,7.794889308871305L-65.1302,7.822642080100928L-65.1793,7.85645599153198L-65.1675,7.8796424133987L-65.0665,7.960772085971358L-64.9917,7.9787565083329675L-65.0273,8.007501531759946L-64.9943,8.037307756269621L-65.072,8.074490620030875L-65.0622,8.094021049209069L-65.1331,8.09153137880756L-71.7598,8.091601835474272Z" />
    <path id="AR-Q" class="regiao" data-nome="Neuquén" d="M-70.4243,6.772120032295129L-70.3576,6.7875139008039955L-70.3824,6.810630989234213L-70.249,6.827209048113091L-70.2069,6.857242765317892L-69.9504,6.896602190966862L-69.9263,6.911478470907641L-69.792,6.927109566901658L-69.8117,6.960491877687751L-69.6319,6.993306339452729L-69.4595,6.998956981132465L-69.2597,6.9932187477865595L-69.079,7.007743399927654L-69.0263,7.033867302181078L-68.8743,7.0445393299667325L-68.7711,7.040849452200808L-68.47,7.070435666826449L-68.2495,7.083905577402259L-68.252,7.277316114076829L-68.2542,7.396052562753097L-68.6138,7.429851067557735L-68.6796,7.452723880393258L-68.806,7.470712164435996L-68.9408,7.509779890470493L-69.2546,7.535916776502888L-69.3684,7.566453597483362L-69.8845,7.609423878645046L-69.9867,7.628344678209132L-69.9909,7.670869496997772L-70.0636,7.709846458112221L-70.1803,7.737491812560785L-70.3868,7.748876115423313L-70.5065,7.743596057424879L-70.6745,7.761877370382048L-70.8053,7.763417116052787L-70.9765,7.779329194893579L-71.113,7.810857141520199L-71.0341,7.8409486518431635L-71.1533,7.871793953273105L-71.2794,7.880800346002016L-71.5325,7.866772135856994L-71.8592,7.861243109344972L-71.8503,7.838407967757785L-71.9502,7.795626273857459L-71.8593,7.776407679023134L-71.7799,7.722562669011911L-71.664,7.705495565924503L-71.8181,7.675781957237463L-71.7914,7.655319830453173L-71.667,7.639922524100561L-71.6333,7.617845462950563L-71.705,7.5671343831183835L-71.709,7.544276181844181L-71.4926,7.53804584988322L-71.3878,7.456982413427665L-71.4186,7.394054770202347L-71.3608,7.377969338350625L-71.0978,7.350457616649869L-70.9461,7.346675104416132L-70.8619,7.333454537483185L-70.8257,7.303474720382645L-70.9716,7.2721696882131255L-71.0132,7.230390804950366L-70.9983,7.195435705521428L-71.1799,7.112797540575223L-71.1231,7.088926608065411L-71.1087,7.060494389503339L-71.1963,7.026054313361449L-71.1128,6.984921537973904L-71.1861,6.926149914583356L-71.0343,6.847471583766782L-70.9528,6.84812281921624L-70.7069,6.8324133682865L-70.7047,6.801233153390271L-70.5886,6.778323462618372L-70.4243,6.772120032295129Z" />
    <path id="AR-N" class="regiao" data-nome="Misiones" d="M-55.9653,4.962283418762869L-55.8447,4.976866098091436L-55.7317,4.982863164588237L-55.6,4.964267818109823L-55.5475,4.919142789584906L-55.4177,4.8944898981481035L-55.2511,4.8846403806278555L-55.0556,4.8586571658706585L-54.9493,4.851814251797944L-54.9289,4.836181216006211L-54.8422,4.830165424159656L-54.6932,4.78541038587939L-54.641,4.743778970137315L-54.6604,4.697525144058934L-54.6045,4.691177435037675L-54.6234,4.633991464931981L-54.5464,4.618836755617002L-54.4525,4.63097134367378L-54.3133,4.6159346865232465L-54.1775,4.617230899143072L-54.1076,4.604542739561297L-53.8886,4.631126212086776L-53.8253,4.663594091393163L-53.8269,4.69269140730403L-53.6643,4.739693958274522L-53.65,4.750725182756304L-53.7117,4.7729401569672L-53.7359,4.837646346440251L-53.6986,4.8742277779209155L-53.8078,4.922476384168818L-54.0059,4.934618876136995L-54.1455,4.95403339903986L-54.2803,4.9804641392236695L-54.5297,4.993504663567404L-54.6861,5.006198683902834L-54.8136,5.002320805519367L-54.9082,5.040677467380207L-55.0217,5.061114983455948L-55.1798,5.065536468961604L-55.3213,5.078529870405174L-55.4478,5.111067824364186L-55.6263,5.121812721064593L-55.7512,5.1041448966328895L-55.8337,5.078490364811744L-55.85,5.050696519413597L-55.9307,5.015020003837703L-56.0094,4.991537264638343L-55.9653,4.962283418762869Z" />
    <path id="AR-M" class="regiao" data-nome="Mendoza" d="M-70.4243,6.772120032295129L-70.3961,6.759072136300485L-70.4114,6.7197083552348325L-70.3438,6.702094218712608L-70.4185,6.664192799520192L-70.3961,6.638442706462158L-70.422,6.606202137597502L-70.5503,6.591697461018029L-70.5405,6.5731884982625335L-70.363,6.559245024063295L-70.362,6.52930330998907L-70.2325,6.456476399869481L-70.0455,6.401054139256958L-70.0524,6.379026755063062L-69.8881,6.3752666543331795L-69.8176,6.366059881825514L-69.905,6.270010544135259L-69.8697,6.223204118492158L-69.7749,6.188032316239001L-69.8036,6.165408575578498L-69.9274,6.15745620865451L-70.0004,6.169521790509375L-70.0956,6.144647871995089L-70.0996,6.118079383163248L-69.9933,6.081529903335465L-70.1449,6.057210746274734L-70.1708,6.029980553702917L-70.1466,6.004818342804849L-70.2443,5.964195727282549L-69.974,5.96336972075126L-69.6666,5.95383198612609L-69.5986,5.924011429374042L-69.4421,5.910889707550542L-69.1239,5.894834725716793L-69.0186,5.917088941919632L-68.9315,5.9149879761238955L-68.7339,5.931678584806555L-68.5009,5.937657838930557L-68.4685,5.917686318134569L-68.2263,5.922610244214184L-68.0223,5.914370089611971L-67.8197,5.95069509167801L-67.5722,5.953501761979808L-67.4571,5.961800408789694L-67.3607,5.9825218062430245L-67.3315,5.986987250928434L-67.2492,6.040448966140588L-67.1983,6.061258254855515L-67.2243,6.093316816052095L-67.1968,6.102905748561156L-67.1924,6.152845006695094L-67.1531,6.1970646043758055L-66.9808,6.256513970855301L-66.9415,6.2784746809267435L-66.7665,6.318602351184463L-66.7589,6.3505289826084885L-66.8236,6.3664187721237795L-66.8114,6.398875548122063L-66.7433,6.444534027843045L-66.5922,6.488164063591338L-66.5407,6.51499042188484L-66.5078,6.555680879051041L-66.5189,6.631839727724246L-66.6357,6.7362192742578575L-66.6173,6.742776349737831L-67.4372,6.742948938479989L-68.2895,6.742517469907352L-68.2478,6.777912712379377L-68.2495,7.083905577402259L-68.47,7.070435666826449L-68.7711,7.040849452200808L-68.8743,7.0445393299667325L-69.0263,7.033867302181078L-69.079,7.007743399927654L-69.2597,6.9932187477865595L-69.4595,6.998956981132465L-69.6319,6.993306339452729L-69.8117,6.960491877687751L-69.792,6.927109566901658L-69.9263,6.911478470907641L-69.9504,6.896602190966862L-70.2069,6.857242765317892L-70.249,6.827209048113091L-70.3824,6.810630989234213L-70.3576,6.7875139008039955L-70.4243,6.772120032295129Z" />
    <path id="AR-F" class="regiao" data-nome="La Rioja" d="M-65.1276,5.5050159399901695L-65.402,5.521356594316769L-65.5231,5.573797836355068L-65.6614,5.654784157742583L-65.7672,5.708194505586101L-65.7596,5.876778892191586L-65.8696,5.88091088187248L-66.0575,5.873942525841626L-66.1994,5.884180110051558L-66.3629,5.887347071151766L-66.5767,5.8835221067625625L-66.7305,5.874949592784255L-66.8519,5.833149901431437L-67.0451,5.804460650949349L-67.1078,5.7686594953515L-67.0599,5.712677477748075L-67.1289,5.703264433539532L-67.0814,5.674483143032624L-67.1764,5.641601618441667L-67.2574,5.631451633083047L-67.3786,5.6023503106156305L-67.5666,5.569447717125913L-67.6511,5.540316446918839L-68.0108,5.486613418136574L-68.0375,5.4753343678043L-68.3142,5.435364918288904L-68.47,5.422829205054425L-68.689,5.41307119626119L-68.9777,5.419977612781496L-69.0267,5.407210621332005L-68.9511,5.330696627832721L-68.8906,5.313210759098752L-68.9144,5.2790014404638725L-69.1096,5.244450459307773L-69.1564,5.21667601674565L-69.3475,5.188779626480693L-69.6554,5.173317503125224L-69.5319,5.1560824044397116L-69.3506,5.118863763857235L-69.296,5.093290327336683L-69.1932,5.088072612983928L-69.1206,5.0493551153796545L-68.8736,5.053576876179141L-68.7503,5.047165650680656L-68.4979,5.041742262746923L-68.4293,5.050696519413597L-68.4452,5.091788127101571L-68.1381,5.11666715613687L-67.9336,5.125791494542037L-67.8411,5.1611780821496716L-67.6358,5.168159377196311L-67.5278,5.141179161011942L-67.3638,5.160067634926601L-67.1056,5.1623084189026365L-67.0205,5.149243838805488L-66.9483,5.151879892849336L-66.5713,5.179886025928737L-66.4967,5.1926121837379355L-66.3936,5.2341202482074065L-66.3578,5.264468663524333L-66.1199,5.287019771039301L-65.8108,5.3372951706666605L-65.7538,5.370560228403225L-65.6781,5.3893784034888315L-65.1276,5.5050159399901695Z" />
    <path id="AR-L" class="regiao" data-nome="La Pampa" d="M-63.3885,7.476216433863634L-63.5065,7.473621969367608L-63.8811,7.425509864099845L-63.9858,7.407954732176883L-64.2559,7.382342428408939L-64.4567,7.370705934452914L-64.8031,7.36167613145438L-65.1656,7.359055532964928L-65.3739,7.366918620317572L-65.5874,7.354061908476838L-65.6722,7.362661767061623L-65.9889,7.343945089941246L-66.2467,7.3401417489129965L-66.3818,7.345175776432697L-66.5618,7.33602621097305L-66.6064,7.3114891628464225L-66.7947,7.290824960384622L-66.9686,7.280970853312696L-67.1365,7.256695766252922L-67.1712,7.23059076553747L-67.5217,7.239413712558912L-67.6464,7.225103855783295L-67.7046,7.202753385608103L-67.8699,7.1862821673933555L-67.8664,7.16378595436055L-67.7625,7.149984790595604L-67.7105,7.1237196856014044L-67.7739,7.100890786484049L-67.9119,7.088706355180298L-68.2495,7.083905577402259L-68.2478,6.777912712379377L-68.2895,6.742517469907352L-67.4372,6.742948938479989L-66.6173,6.742776349737831L-65.0879,6.743250972991869L-65.0867,6.528791933125837L-64.6139,6.5283657971979805L-63.3841,6.528834547291508L-63.3894,6.758294763755197L-63.3861,7.430076032779782L-63.3885,7.476216433863634Z" />
    <path id="AR-Y" class="regiao" data-nome="Jujuy" d="M-65.1902,3.9555420393058096L-65.2379,3.9972413580443096L-65.3393,4.034698788291586L-65.2356,4.114797401473499L-65.1619,4.124388813780319L-65.0447,4.125602212674347L-65.0085,4.135482179866643L-65.0445,4.17211507282477L-64.9389,4.189481967699196L-64.8815,4.217685878069526L-64.8106,4.222881282159966L-64.6725,4.211825687253575L-64.5553,4.222614824999876L-64.4742,4.238740587929104L-64.3711,4.222348370671451L-64.1814,4.222976446117714L-64.1582,4.350958644119754L-64.1789,4.364335262406538L-64.3263,4.396975222962026L-64.4103,4.398355344439305L-64.5232,4.411278638955948L-64.6189,4.434726984366624L-64.8195,4.40356984779056L-64.8953,4.428795578832442L-64.9425,4.431098863366828L-65.1217,4.413791239854293L-65.2846,4.412793840223626L-65.5845,4.394521868059423L-65.7465,4.353598940380863L-65.7672,4.3298465335620575L-65.8851,4.31427271191125L-65.9545,4.316316810308701L-66.0263,4.29069188148404L-65.9853,4.26366365735866L-65.9846,4.231809234872844L-66.17,4.206499426692734L-66.3711,4.1988924382398976L-66.4055,4.230514579604566L-66.3697,4.251808753235885L-66.3779,4.27405564161742L-66.4968,4.340878398587558L-66.5219,4.347457821957644L-66.6875,4.342599588363364L-66.86,4.328661429302253L-67.071,4.286264634245153L-67.2509,4.266027690042684L-67.1509,4.201041179599628L-67.0008,4.127156964069512L-67.1836,4.092822692956898L-67.1245,4.073515570479367L-67.0126,4.057361655828291L-67.0225,4.036512604387933L-66.7747,4.018191289617124L-66.7367,3.980568824917821L-66.3454,3.9596675720101855L-66.3069,3.952189338197789L-66.2363,3.899524325303067L-66.0775,3.9060853451158577L-65.9261,3.925157117878015L-65.75,3.9584430319886934L-65.1902,3.9555420393058096Z" />
    <path id="AR-P" class="regiao" data-nome="Formosa" d="M-62.3393,4.3395206565354885L-62.3372,4.163948769149922L-62.3414,4.026387075239687L-62.2504,4.036777129764011L-62.1547,4.080422834540368L-62.0257,4.10748304276909L-61.9905,4.127668915078079L-61.7576,4.1591641561744295L-61.7442,4.171070398933909L-61.5942,4.183020241829134L-61.4509,4.206004902584214L-61.2948,4.219550771129768L-61.1113,4.242245080363803L-61.0107,4.2808270740450345L-60.6139,4.296780641574297L-60.5774,4.306690017068984L-60.2797,4.324303796266321L-60.0381,4.318800523012983L-59.4708,4.384806724146893L-59.3389,4.410530663296055L-58.9386,4.4482845024763655L-58.8079,4.466712759611652L-58.4493,4.481731069231985L-58.3522,4.5025724241299345L-58.1818,4.504054916937218L-57.8792,4.525108640023672L-57.7611,4.541803164819386L-57.6321,4.583282394122343L-57.5563,4.5936395550769955L-57.5767,4.614793305571697L-57.7489,4.650744823948522L-57.9008,4.693409608710647L-57.8601,4.7017190941559175L-58.1447,4.742358858647439L-58.1314,4.752126358135329L-58.21,4.7839096954584495L-58.2173,4.807503583973278L-58.1817,4.829892017664144L-58.3167,4.872251503086095L-58.3527,4.874716982125779L-58.4649,4.863956987120573L-58.6678,4.826318512511746L-58.87,4.79948667685767L-58.9755,4.7780832887631455L-59.2117,4.766026054298564L-59.3894,4.7622680092696426L-59.4482,4.734345651497703L-59.6651,4.727540539222516L-59.6983,4.7047679584571025L-59.8653,4.6670062649782125L-60.1811,4.637418619162177L-60.2372,4.604136678258283L-60.3947,4.575285793849297L-60.5055,4.548360837107261L-60.8087,4.522141105868008L-61.1031,4.477595762669467L-61.2042,4.4452305113332145L-61.4523,4.435571704961795L-61.6528,4.410012847578116L-61.7005,4.3954801802121395L-61.8168,4.381722453431873L-62.3393,4.3395206565354885Z" />
    <path id="AR-E" class="regiao" data-nome="Entre Ríos" d="M-60.2944,6.160774491296777L-60.3476,6.147525836079919L-60.5353,6.130181496588351L-60.6883,6.076667661400171L-60.7411,6.026292105794466L-60.7445,6.001383185659929L-60.6786,5.966983768616432L-60.7089,5.93293613193301L-60.6494,5.846566693602549L-60.4329,5.837354453087613L-60.145,5.782358326737303L-60.0633,5.7509064382871555L-59.9874,5.736883085044369L-59.7384,5.669744623953866L-59.5858,5.622463136661672L-59.5829,5.580355174461172L-59.6509,5.5612559042954945L-59.3967,5.554745325481317L-59.2398,5.561923258461667L-59.0269,5.534580143288917L-58.8711,5.539043814062858L-58.6847,5.525998976858074L-58.573,5.52448503751124L-58.2297,5.543488283729148L-58.1181,5.571248348042747L-57.9925,5.614005942385724L-57.8064,5.644424249582569L-57.797,5.671920538961839L-57.9209,5.750886018421458L-58.0044,5.780865292802366L-58.0789,5.7927718922688545L-57.9898,5.807593878824538L-57.9816,5.822160920064934L-58.0402,5.856994837127231L-58.2001,5.87869059617848L-58.146,5.898908927477842L-58.1823,5.932626891229257L-58.1016,5.952800054993074L-58.1016,5.967458809687017L-58.2211,6.000700368505182L-58.224,6.018296078960122L-58.1505,6.0956667858573805L-58.1465,6.116725943121583L-58.2215,6.127097927279744L-58.4257,6.127556262834542L-58.4267,6.161859846841802L-58.5074,6.192652439476775L-58.5494,6.2452710506163704L-58.5323,6.268498760452994L-58.4666,6.284694056515563L-58.4482,6.31879184587927L-58.598,6.328227010909235L-59.0317,6.281289942271093L-59.2349,6.274357630255758L-59.4397,6.259241855657184L-59.4992,6.245375896221729L-59.6023,6.2499897062791385L-59.7594,6.236591946875555L-59.8842,6.214828671305359L-60.1088,6.190791705543814L-60.2944,6.160774491296777Z" />
    <path id="AR-W" class="regiao" data-nome="Corrientes" d="M-59.6509,5.5612559042954945L-59.67,5.547933748735714L-59.5697,5.497314247406L-59.6604,5.464021409489095L-59.5959,5.419314976386842L-59.5759,5.371842278017445L-59.4889,5.339535159261036L-59.37,5.329876957209229L-59.1995,5.298793611177777L-59.0843,5.219141590422389L-59.0583,5.178040281880252L-59.0696,5.1293750095764175L-58.8911,5.113283637758261L-58.8569,5.093784495304337L-58.8181,5.036300529397135L-58.8521,4.990278223056659L-58.7228,4.970457948589393L-58.6046,4.959316980661879L-58.5056,4.9537584521442L-58.0111,4.950164822083861L-57.7296,4.9573919587726625L-57.6169,4.970084525725285L-57.297,4.981761939698414L-57.0777,4.9937801136746796L-56.8807,4.979500670863907L-56.7314,4.996357709434113L-56.55,4.985970493255132L-56.3981,5.011928193700327L-56.275,4.989097937989959L-56.2681,4.973563502920682L-56.144,4.958256233282349L-55.9653,4.962283418762869L-56.0094,4.991537264638343L-55.9307,5.015020003837703L-55.85,5.050696519413597L-55.8337,5.078490364811744L-55.7512,5.1041448966328895L-55.6263,5.121812721064593L-55.7675,5.1446463969643785L-55.7329,5.165838633049011L-55.8931,5.167127903759102L-56.0111,5.205127485962891L-56.17,5.2383790971939925L-56.2756,5.248014478062358L-56.4274,5.3064202623949805L-56.625,5.327358174464461L-56.6958,5.3611476459958425L-57.1039,5.445194023936876L-57.2799,5.453941739120934L-57.3255,5.488688649503562L-57.4869,5.519721925956501L-57.608,5.530359765832954L-57.6689,5.564673803998932L-57.8686,5.593982785005784L-57.8899,5.614005942385724L-57.8064,5.644424249582569L-57.9925,5.614005942385724L-58.1181,5.571248348042747L-58.2297,5.543488283729148L-58.573,5.52448503751124L-58.6847,5.525998976858074L-58.8711,5.539043814062858L-59.0269,5.534580143288917L-59.2398,5.561923258461667L-59.3967,5.554745325481317L-59.6509,5.5612559042954945Z" />
    <path id="AR-X" class="regiao" data-nome="Cordoba" d="M-65.0867,6.528791933125837L-65.0847,6.3351380616850435L-65.1305,6.149569883045938L-65.006,6.107317089737807L-64.8738,6.0149205519806035L-64.9142,5.9652489385032625L-65.1955,5.9675414267571565L-65.2489,5.9241144618139305L-65.31,5.912331207916974L-65.6361,5.877991671255351L-65.7596,5.876778892191586L-65.7672,5.708194505586101L-65.6614,5.654784157742583L-65.5231,5.573797836355068L-65.402,5.521356594316769L-65.1276,5.5050159399901695L-64.9272,5.465148393422526L-64.9663,5.407652112438084L-64.8824,5.404020130626127L-64.2705,5.376650682878741L-64.0441,5.3889172603375L-64.007,5.404742461898082L-63.8162,5.422266887417857L-63.5999,5.420218576853788L-63.457,5.427830503839456L-63.3906,5.446903048854438L-63.1945,5.448933961143419L-62.2583,5.446601445684668L-62.0871,5.524626333644946L-62.1403,5.58414080233473L-62.1893,5.606991464836394L-62.0064,5.629564315769753L-61.8472,5.640444254325826L-62.132,5.826834563227807L-62.2447,5.843509130254743L-62.2128,5.883583793598448L-62.2176,5.928421722805364L-62.0887,5.9488998685853005L-62.0329,5.975536355299697L-61.8953,6.003618035113375L-61.8325,6.040117202931289L-61.7324,6.0728452606093715L-61.7659,6.108898772018684L-61.9353,6.134745298955285L-62.32,6.2453129887853995L-62.8539,6.397225919603021L-63.382,6.396612635367483L-63.3841,6.528834547291508L-64.6139,6.5283657971979805L-65.0867,6.528791933125837Z" />
    <path id="AR-C" class="regiao" data-nome="Ciudad de Buenos Aires" d="M-58.3463,6.450472382655402L-58.4655,6.4619942656537415L-58.5331,6.445339829946759L-58.4697,6.430565581682842L-58.3463,6.450472382655402Z" />
    <path id="AR-U" class="regiao" data-nome="Chubut" d="M-71.645,9.062629252504149L-71.6498,9.033540074734029L-71.7537,9.024892812864746L-71.7922,8.994832074169196L-71.7505,8.95226713428905L-71.4675,8.93209092469027L-71.2986,8.889244313437397L-71.3295,8.870942619634487L-71.5826,8.807665233117257L-71.7409,8.798243630890955L-72.0668,8.789493570742895L-72.0474,8.753146262250532L-71.8411,8.762587116366397L-71.6536,8.760226314230337L-71.5183,8.750664163085052L-71.3397,8.765292684978318L-71.2259,8.751376800636892L-71.232,8.730896577124339L-71.1088,8.69949683909762L-71.1957,8.673810825306749L-71.4011,8.666504871643099L-71.7786,8.66836154930345L-71.7792,8.589397021299263L-71.6486,8.548732237517765L-71.8077,8.511733906191045L-71.7029,8.493837408328844L-71.7017,8.472708909723172L-71.9356,8.437010003091505L-71.8957,8.406244064323856L-71.7333,8.395044208917131L-71.7397,8.37049218350983L-71.8356,8.360180666245808L-71.9993,8.357502297027844L-72.1367,8.3297908272566L-72.102,8.293772603136848L-72.1389,8.231052855841936L-72.0448,8.178563831756245L-72.1304,8.158851584821639L-72.0384,8.126754172839904L-71.9072,8.133111598326582L-71.7266,8.114023930434985L-71.7598,8.091601835474272L-65.1331,8.09153137880756L-65.0622,8.094021049209069L-65.0136,8.11334183975566L-64.8771,8.136220660830233L-64.6039,8.152153016047203L-64.4645,8.15418113731885L-64.6009,8.187637899782725L-64.4519,8.196741176221414L-64.1354,8.194518042122068L-64.0472,8.180666441977362L-64.0836,8.15441698332813L-64.2931,8.153308539610935L-63.8719,8.115764579033883L-63.7325,8.115176499354451L-63.5869,8.169802225858492L-63.5793,8.236814791660553L-63.6286,8.272384639779485L-63.6845,8.284514151355058L-64.0639,8.301226440650066L-64.2482,8.274833520243037L-64.1988,8.244002578156998L-64.3167,8.22162046163935L-64.454,8.21127071251017L-64.6183,8.21408834796434L-64.8397,8.241606260510155L-64.9538,8.24775205358046L-64.9895,8.279470866004894L-64.8057,8.290630264356372L-64.5939,8.314381089056482L-64.2965,8.326306714830107L-64.5914,8.356282844941944L-64.7692,8.364055604006099L-65.0338,8.402957561786305L-65.1324,8.438428581797902L-65.3268,8.487201284461221L-65.3163,8.527160534023482L-65.2288,8.596056028480117L-65.3086,8.619459944217882L-65.2495,8.645194780114657L-65.3875,8.6961672808323L-65.5967,8.719441501071882L-65.689,8.742852067752384L-65.7126,8.771738935910955L-65.5373,8.78717755826L-65.6111,8.818821417278961L-65.6885,8.824205202972516L-65.8425,8.810379423612648L-66.1828,8.804976230594349L-66.5177,8.834583420778053L-66.5667,8.852664675083195L-66.8533,8.866284198746841L-66.9904,8.883413955538744L-67.1818,8.944317727640879L-67.2983,8.961742539271757L-67.3811,9.01149389160431L-67.5844,9.06283025215196L-71.645,9.062629252504149Z" />
    <path id="AR-H" class="regiao" data-nome="Chaco" d="M-58.8569,5.093784495304337L-59.6561,5.094140303339839L-60.3931,5.0943577445097565L-61.71,5.094021700000944L-61.7086,4.860182445817412L-61.7158,4.636566623716488L-62.7467,4.636953890476341L-63.3985,4.636082549399803L-62.6456,4.4653479278391215L-62.3342,4.392432879075086L-62.3393,4.3395206565354885L-61.8168,4.381722453431873L-61.7005,4.3954801802121395L-61.6528,4.410012847578116L-61.4523,4.435571704961795L-61.2042,4.4452305113332145L-61.1031,4.477595762669467L-60.8087,4.522141105868008L-60.5055,4.548360837107261L-60.3947,4.575285793849297L-60.2372,4.604136678258283L-60.1811,4.637418619162177L-59.8653,4.6670062649782125L-59.6983,4.7047679584571025L-59.6651,4.727540539222516L-59.4482,4.734345651497703L-59.3894,4.7622680092696426L-59.2117,4.766026054298564L-58.9755,4.7780832887631455L-58.87,4.79948667685767L-58.6678,4.826318512511746L-58.4649,4.863956987120573L-58.3527,4.874716982125779L-58.4712,4.894666172132142L-58.6535,4.934991692430401L-58.6046,4.959316980661879L-58.7228,4.970457948589393L-58.8521,4.990278223056659L-58.8181,5.036300529397135L-58.8569,5.093784495304337Z" />
    <path id="AR-K" class="regiao" data-nome="Catamarca" d="M-65.1692,5.076080661782251L-65.0797,5.147143159282756L-65.0795,5.18987173463508L-65.1808,5.213077597125264L-65.0903,5.2400709379960375L-65.0708,5.302945992465223L-65.0378,5.350138431609973L-64.8824,5.404020130626127L-64.9663,5.407652112438084L-64.9272,5.465148393422526L-65.1276,5.5050159399901695L-65.6781,5.3893784034888315L-65.7538,5.370560228403225L-65.8108,5.3372951706666605L-66.1199,5.287019771039301L-66.3578,5.264468663524333L-66.3936,5.2341202482074065L-66.4967,5.1926121837379355L-66.5713,5.179886025928737L-66.9483,5.151879892849336L-67.0205,5.149243838805488L-67.1056,5.1623084189026365L-67.3638,5.160067634926601L-67.5278,5.141179161011942L-67.6358,5.168159377196311L-67.8411,5.1611780821496716L-67.9336,5.125791494542037L-68.1381,5.11666715613687L-68.4452,5.091788127101571L-68.4293,5.050696519413597L-68.4979,5.041742262746923L-68.7503,5.047165650680656L-68.8736,5.053576876179141L-69.1206,5.0493551153796545L-69.0735,5.021047352951708L-68.9035,4.968610550698355L-68.8781,4.9442356441197575L-68.8075,4.920397730441515L-68.6458,4.924300270941094L-68.3233,4.901718288447567L-68.2878,4.880079369833484L-68.5836,4.800461816407725L-68.5453,4.756953293957974L-68.3999,4.733101135608667L-68.5011,4.6474900397787415L-68.5967,4.604852124365635L-68.5725,4.57549822849126L-68.4859,4.540067616600921L-67.8069,4.563373231388457L-66.5725,4.560613162563408L-66.4697,4.601835798237335L-66.495,4.626887063714655L-66.5795,4.63798017880525L-66.7422,4.639296992921132L-66.8033,4.648071217514848L-66.7872,4.6816300730929425L-66.6592,4.710808632660399L-66.5288,4.754325600201515L-66.4358,4.772803802037916L-66.3611,4.774362193294969L-66.2688,4.746638917063517L-66.1528,4.7468334844067765L-66.2178,4.779642045654558L-66.2145,4.80894732239226L-66.0232,4.818197263538194L-65.8679,4.838896667339016L-65.8693,4.879022445953016L-66.1421,4.941899754376518L-66.1889,4.961104653271692L-66.0977,4.965486053836523L-65.9858,4.981486642205317L-65.9274,5.026642871092099L-65.8347,5.054366082532943L-65.6993,5.058707236899482L-65.6484,5.088151659733242L-65.5656,5.103868026415426L-65.5046,5.087736667568698L-65.3419,5.0661287015519365L-65.2591,5.076633684344108L-65.1692,5.076080661782251Z" />
    <path id="AR-B" class="regiao" data-nome="Buenos Aires" d="M-61.8933,7.4577035484536385L-62.0611,7.440382864808467L-62.0792,7.4226763517242915L-61.89,7.4344859959920235L-61.8933,7.4577035484536385Z M-58.4697,6.430565581682842L-58.5331,6.445339829946759L-58.4655,6.4619942656537415L-58.3463,6.450472382655402L-58.1642,6.474649456018105L-57.7959,6.502582637160272L-57.4965,6.538404066103498L-57.3356,6.561529022333041L-57.1883,6.596787687568044L-57.1297,6.628860640721397L-57.3761,6.69566032939668L-57.3766,6.734731342323366L-57.3104,6.7632403238429255L-57.1049,6.804415705944667L-56.9333,6.822461507725508L-56.7701,6.808746672240563L-56.6984,6.831307315742942L-56.671,6.868714869438523L-56.6605,6.932257735890833L-57.0828,7.059131231771712L-57.484,7.1423593563780665L-57.5779,7.210540364484077L-57.8364,7.244927723759462L-58.3011,7.287658502473801L-58.767,7.313253324533219L-59.0321,7.333566340777184L-59.2672,7.341260284687991L-59.9092,7.367949397774156L-60.8239,7.396793381086192L-61.1622,7.4026537972503395L-61.3908,7.398499639459145L-61.5403,7.4058880556451285L-61.8181,7.3997794534321155L-62.0232,7.3901272580990005L-62.2083,7.361720931751812L-62.3517,7.355830771650665L-62.3817,7.371288678037663L-62.2789,7.392999857411253L-62.3369,7.420585274406167L-62.3275,7.461399881949941L-62.2749,7.479104687380063L-62.0688,7.517491972959943L-62.1171,7.591957909388693L-62.2623,7.593912762135394L-62.3092,7.604555092933638L-62.369,7.6768331975504775L-62.4888,7.6981934010581075L-62.4215,7.73382125104181L-62.2475,7.766680967619248L-62.2258,7.78057158274312L-62.3208,7.827510918372662L-62.7267,7.869456403666931L-62.7716,7.869572115502344L-62.9263,7.827187819453521L-63.1193,7.80083209833693L-63.3614,7.793553650140026L-63.3881,7.779122140028964L-63.3866,7.558694733617575L-63.3885,7.476216433863634L-63.3861,7.430076032779782L-63.3894,6.758294763755197L-63.3841,6.528834547291508L-63.382,6.396612635367483L-62.8539,6.397225919603021L-61.7106,6.396105105854044L-60.927,6.240805193465672L-60.8464,6.222073206796209L-60.6713,6.227770369899469L-60.5845,6.240343994178392L-60.4787,6.238205860499351L-60.4157,6.20499246734846L-60.2827,6.173301756123876L-60.2944,6.160774491296777L-60.1088,6.190791705543814L-59.8842,6.214828671305359L-59.7594,6.236591946875555L-59.6023,6.2499897062791385L-59.4992,6.245375896221729L-59.4397,6.259241855657184L-59.2349,6.274357630255758L-59.0317,6.281289942271093L-58.598,6.328227010909235L-58.4482,6.31879184587927L-58.3853,6.32719479699579L-58.3775,6.355760706232278L-58.4989,6.38549261118298L-58.4697,6.430565581682842Z" />
</svg>