<?xml version="1.0"?>
<svg viewBox="-5.225644 40.933355999999996 15.216088 10.586088000000002" xmlns="http://www.w3.org/2000/svg">
    <path id="FR-PAC" class="regiao" data-nome="Provence-Alpes-Côte d'Azur" d="M4.2303,43.4596L4.2409,43.499L4.4612,43.5895L4.4716,43.6126L4.4258,43.6242L4.4854,43.6974L4.54,43.7073L4.6278,43.6857L4.6126,43.7257L4.6514,43.782L4.6429,43.8308L4.6673,43.8449L4.6415,43.8667L4.8139,43.9632L4.8136,43.9883L4.8441,43.9894L4.7861,44.066L4.7202,44.0818L4.7048,44.1082L4.7213,44.1877L4.707,44.2146L4.6729,44.2158L4.6493,44.2708L4.6505,44.3303L4.7885,44.3136L4.8189,44.2278L4.8798,44.2612L4.9221,44.2602L5.0598,44.308L5.0763,44.2843L5.1084,44.2779L5.1668,44.3153L5.1522,44.2323L5.2297,44.2115L5.2491,44.2315L5.298,44.2072L5.3551,44.2144L5.3848,44.2004L5.383,44.1553L5.4354,44.1518L5.455,44.1193L5.5034,44.1157L5.5828,44.1575L5.5746,44.1865L5.6017,44.1913L5.6395,44.1678L5.6311,44.1505L5.6784,44.1464L5.6825,44.1635L5.6431,44.1715L5.6517,44.1894L5.6863,44.1962L5.6865,44.267L5.6471,44.267L5.6366,44.3007L5.6079,44.3063L5.6292,44.3336L5.5477,44.3304L5.5212,44.3509L5.4931,44.3378L5.4303,44.3749L5.4431,44.3913L5.419,44.4252L5.4641,44.4477L5.4576,44.4991L5.6136,44.4714L5.6281,44.5L5.6635,44.5022L5.5966,44.5438L5.6475,44.6116L5.6426,44.6515L5.7287,44.6387L5.749,44.6617L5.7891,44.6531L5.8301,44.6901L5.7986,44.7061L5.8267,44.7592L5.8825,44.7462L5.9508,44.7602L5.98,44.7813L5.9492,44.8046L6.0174,44.8354L6.0562,44.8158L6.1337,44.8641L6.2471,44.8517L6.2912,44.8737L6.3359,44.8479L6.3555,44.8547L6.358,44.9392L6.3225,44.9537L6.3236,44.9986L6.2513,44.9963L6.2041,45.016L6.2196,45.0643L6.2441,45.0705L6.2303,45.1018L6.2629,45.1265L6.2937,45.1081L6.333,45.1232L6.3639,45.1026L6.3645,45.0702L6.4507,45.052L6.4863,45.0551L6.48,45.093L6.5101,45.1094L6.5414,45.0998L6.5777,45.1239L6.6304,45.1091L6.6727,45.0186L6.7435,45.013L6.7366,44.9893L6.7638,44.9591L6.7428,44.9377L6.7502,44.9041L6.8628,44.849L6.9096,44.8426L6.9349,44.8607L7.0216,44.822L6.999,44.7877L7.0752,44.682L6.9931,44.6899L6.9613,44.6759L6.9474,44.6518L6.9484,44.6172L6.9312,44.5729L6.877,44.5544L6.8542,44.5283L6.8768,44.48L6.9471,44.4297L6.8915,44.4214L6.8861,44.3623L6.9216,44.3506L6.9552,44.2959L6.9933,44.28L7.0054,44.2356L7.1859,44.2012L7.2776,44.1407L7.3411,44.1461L7.3556,44.1153L7.429,44.1303L7.4593,44.1254L7.5603,44.1562L7.617,44.1495L7.6353,44.1768L7.6826,44.1748L7.665,44.1312L7.7131,44.0839L7.7039,44.0422L7.6612,44.0285L7.6506,43.974L7.5653,43.9417L7.5566,43.8959L7.4953,43.8726L7.5301,43.7822L7.4373,43.7502L7.4059,43.7185L7.3386,43.712L7.3329,43.6756L7.2847,43.6975L7.2421,43.6887L7.2005,43.662L7.1567,43.6527L7.1215,43.5865L7.1449,43.5516L7.1209,43.5415L7.0981,43.5706L7.0383,43.5348L7.0158,43.5508L6.9625,43.5418L6.9367,43.5138L6.9564,43.4968L6.891,43.4288L6.8544,43.412L6.7891,43.4086L6.7451,43.4229L6.7164,43.348L6.6808,43.3412L6.6715,43.313L6.5748,43.2723L6.6642,43.2649L6.6812,43.1997L6.6419,43.1867L6.621,43.158L6.5997,43.1834L6.5614,43.1892L6.4966,43.1509L6.3847,43.1444L6.3619,43.1241L6.3642,43.0863L6.2743,43.121L6.1872,43.1149L6.1505,43.0653L6.1246,43.0791L6.0215,43.078L6.0017,43.1057L5.9279,43.102L5.923,43.1244L5.8896,43.1185L5.9497,43.0677L5.8931,43.0787L5.8612,43.0464L5.8301,43.0496L5.7946,43.0685L5.8099,43.1149L5.7682,43.1157L5.7737,43.1385L5.6967,43.1433L5.6875,43.1795L5.6229,43.1862L5.6052,43.1596L5.5367,43.2141L5.5,43.1965L5.3414,43.2146L5.3753,43.2564L5.3457,43.2815L5.3735,43.2949L5.3514,43.3337L5.3088,43.361L5.2282,43.3283L5.0497,43.3245L5.0177,43.3416L5.0186,43.3686L4.9698,43.4248L4.92,43.4316L4.8777,43.4101L4.8357,43.3757L4.8785,43.3556L4.8606,43.3285L4.8365,43.3272L4.7747,43.348L4.5821,43.3598L4.5579,43.3801L4.5955,43.4032L4.5905,43.4215L4.5332,43.4516L4.2303,43.4596Z" />
    <path id="FR-PDL" class="regiao" data-nome="Pays de la Loire" d="M-2.2566,47.0283L-2.2172,47.0094L-2.2315,46.9756L-2.1565,46.9497L-2.1492,46.895L-2.2077,46.9585L-2.261,46.96L-2.2999,46.9918L-2.2902,47.0121L-2.2566,47.0283Z M-1.0702,48.5083L-1.0047,48.4894L-0.9735,48.4945L-0.9563,48.5174L-0.9095,48.4968L-0.8459,48.4995L-0.8143,48.4554L-0.7793,48.4655L-0.7604,48.4362L-0.7141,48.4501L-0.6641,48.4854L-0.652,48.4442L-0.598,48.4716L-0.5517,48.4732L-0.5104,48.509L-0.3971,48.51L-0.3535,48.4843L-0.3215,48.5225L-0.2717,48.5075L-0.2417,48.5365L-0.2495,48.5645L-0.2076,48.5638L-0.1456,48.5282L-0.1739,48.5108L-0.1469,48.4571L-0.0508,48.4514L-0.0511,48.3748L-0.001,48.3976L0.0143,48.3811L0.058,48.3779L0.0713,48.4088L0.157,48.4416L0.1725,48.4653L0.301,48.4809L0.3558,48.4593L0.3823,48.4249L0.37,48.4118L0.3921,48.3218L0.4793,48.2985L0.5354,48.2487L0.6238,48.2459L0.6535,48.2638L0.6838,48.2545L0.7379,48.1881L0.7604,48.1803L0.7976,48.1941L0.9157,48.1386L0.8508,48.1331L0.8429,48.0724L0.7936,48.07L0.7972,48.0366L0.8421,48.0292L0.8186,47.9856L0.8489,47.9396L0.8154,47.9317L0.7609,47.9003L0.7689,47.8318L0.6928,47.783L0.7021,47.7667L0.6272,47.7516L0.5862,47.7177L0.5966,47.6718L0.4644,47.6449L0.4497,47.6191L0.4248,47.6163L0.3838,47.6436L0.365,47.6196L0.4036,47.5786L0.3842,47.5702L0.2568,47.612L0.2341,47.5966L0.1943,47.5392L0.2264,47.5274L0.2217,47.5002L0.153,47.3995L0.1824,47.3817L0.1396,47.3616L0.1467,47.3469L0.0774,47.2817L0.0793,47.2177L0.0546,47.1642L0.0189,47.1752L-0.0076,47.1602L-0.0409,47.1139L-0.0368,47.0865L-0.0869,47.1007L-0.1028,47.0643L-0.1299,47.0541L-0.1797,47.0702L-0.1432,47.1035L-0.1846,47.1084L-0.205,47.0943L-0.2661,47.1058L-0.3407,47.087L-0.397,47.0913L-0.408,47.0668L-0.4587,47.069L-0.495,47.0836L-0.5566,47.0642L-0.5439,47.0326L-0.5991,46.997L-0.6704,47.0033L-0.7146,46.984L-0.7873,47.0054L-0.8084,46.9873L-0.8431,46.9898L-0.8523,46.9698L-0.8958,46.9745L-0.8592,46.9342L-0.8075,46.9208L-0.8306,46.8847L-0.775,46.8398L-0.6977,46.8098L-0.7177,46.7971L-0.7191,46.7558L-0.6554,46.7006L-0.6788,46.6867L-0.6361,46.6638L-0.6577,46.6367L-0.6149,46.6221L-0.6279,46.5759L-0.6045,46.5329L-0.6482,46.521L-0.609,46.4555L-0.6381,46.4325L-0.5395,46.3852L-0.5591,46.3598L-0.601,46.3601L-0.6389,46.3384L-0.6477,46.317L-0.698,46.3255L-0.7221,46.3022L-0.8026,46.3248L-0.8276,46.3376L-0.8509,46.3172L-0.8874,46.3266L-0.9321,46.31L-0.9618,46.3224L-0.9751,46.3514L-1.0541,46.3497L-1.0754,46.3171L-1.1164,46.3164L-1.2021,46.3147L-1.2063,46.2697L-1.316,46.3338L-1.3436,46.3419L-1.468,46.342L-1.5147,46.4035L-1.6492,46.4196L-1.7786,46.4921L-1.8138,46.4944L-1.8577,46.61L-1.9488,46.6975L-1.9669,46.6935L-2.0165,46.7472L-2.143,46.8219L-2.1528,46.8894L-2.034,46.9688L-2.0291,47.0092L-1.9786,47.0291L-2.0048,47.0619L-2.0525,47.0946L-2.2469,47.1331L-2.2148,47.1605L-2.166,47.1687L-2.1711,47.2644L-2.2114,47.2703L-2.299,47.2329L-2.3752,47.2784L-2.417,47.2768L-2.4314,47.2584L-2.5445,47.2902L-2.5083,47.3086L-2.5053,47.3382L-2.5591,47.3742L-2.4583,47.4235L-2.4579,47.4479L-2.4235,47.4768L-2.4018,47.4561L-2.3175,47.4609L-2.2986,47.5161L-2.2593,47.5139L-2.245,47.4944L-2.1573,47.5215L-2.098,47.5328L-2.1007,47.5941L-2.0815,47.6113L-2.0981,47.6311L-2.052,47.6487L-1.973,47.6937L-1.9548,47.6713L-1.86,47.7086L-1.7699,47.6974L-1.6598,47.7095L-1.6219,47.7635L-1.4729,47.8029L-1.4787,47.8352L-1.3881,47.828L-1.3633,47.799L-1.2468,47.7764L-1.2218,47.8515L-1.1874,47.8676L-1.1553,47.9647L-1.1243,47.9863L-1.0501,47.9841L-1.0168,48.003L-1.0336,48.0318L-1.0216,48.0687L-1.051,48.0906L-1.0748,48.2008L-1.1015,48.2662L-1.0455,48.3288L-1.0814,48.4146L-1.0702,48.5083Z" />
    <path id="FR-OCC" class="regiao" data-nome="Occitanie" d="M4.6493,44.2708L4.6729,44.2158L4.707,44.2146L4.7213,44.1877L4.7048,44.1082L4.7202,44.0818L4.7861,44.066L4.8441,43.9894L4.8136,43.9883L4.8139,43.9632L4.6415,43.8667L4.6673,43.8449L4.6429,43.8308L4.6514,43.782L4.6126,43.7257L4.6278,43.6857L4.54,43.7073L4.4854,43.6974L4.4258,43.6242L4.4716,43.6126L4.4612,43.5895L4.2409,43.499L4.2303,43.4596L4.1349,43.4854L4.1189,43.5088L4.139,43.5314L4.1069,43.5522L3.9745,43.5455L3.9363,43.5236L3.8552,43.4881L3.7773,43.4286L3.7297,43.4167L3.7244,43.3997L3.6437,43.3827L3.5513,43.3205L3.5063,43.2666L3.4276,43.2899L3.3516,43.2731L3.1806,43.1718L3.1226,43.1077L3.0391,42.9397L3.0614,42.9175L3.0296,42.7035L3.0448,42.7021L3.0316,42.6111L3.0474,42.5411L3.1417,42.5158L3.1306,42.4821L3.1562,42.4767L3.1779,42.4387L3.0863,42.4253L3.0329,42.4747L2.9672,42.4652L2.9473,42.4819L2.918,42.4561L2.87,42.467L2.7988,42.418L2.7335,42.4239L2.673,42.4036L2.6519,42.3862L2.672,42.3403L2.5768,42.358L2.5414,42.3331L2.4822,42.3398L2.4331,42.393L2.2569,42.4376L2.2015,42.4153L2.1556,42.4232L2.0855,42.3619L2.0166,42.3478L1.9637,42.3819L1.9343,42.4526L1.8808,42.4489L1.823,42.4868L1.7287,42.4948L1.738,42.5555L1.7945,42.5814L1.7253,42.5901L1.7351,42.6168L1.5986,42.6265L1.55,42.6556L1.4933,42.6531L1.4688,42.6065L1.437,42.6028L1.3897,42.6865L1.3509,42.7032L1.3563,42.7191L1.2534,42.7149L1.2307,42.7277L1.1694,42.7085L1.0792,42.7882L0.9839,42.7864L0.9602,42.8055L0.9261,42.789L0.856,42.8263L0.708,42.8616L0.6587,42.8392L0.6697,42.8051L0.6443,42.7832L0.6415,42.7551L0.6773,42.7267L0.6749,42.6913L0.5964,42.7058L0.4215,42.6909L0.3591,42.7241L0.2934,42.6735L0.2586,42.7158L0.1752,42.7369L0.0592,42.698L0.0135,42.7011L-0.003,42.6848L-0.0578,42.6921L-0.0696,42.7174L-0.1131,42.7258L-0.1611,42.7978L-0.1886,42.7868L-0.3136,42.8493L-0.3277,42.9172L-0.2814,42.9339L-0.2881,43.0052L-0.2595,43.0143L-0.2608,43.037L-0.18,43.0516L-0.1989,43.0667L-0.193,43.114L-0.146,43.1287L-0.1061,43.1664L-0.0678,43.1768L-0.0731,43.2228L-0.0493,43.2185L-0.0173,43.2705L-0.0462,43.3014L-0.0266,43.3292L0.0102,43.3254L0.0297,43.3463L-0.0036,43.3724L-0.0007,43.4454L-0.0428,43.4103L-0.0711,43.4352L-0.0658,43.4631L-0.0183,43.4721L-0.0499,43.4918L-0.0401,43.5125L-0.0662,43.5481L-0.0935,43.5434L-0.0963,43.582L-0.1603,43.5804L-0.1769,43.5963L-0.2384,43.5826L-0.2471,43.6157L-0.2793,43.6183L-0.2815,43.6429L-0.2417,43.6547L-0.2494,43.7072L-0.1942,43.7373L-0.2182,43.7504L-0.2261,43.8082L-0.193,43.81L-0.2081,43.8577L-0.1859,43.8683L-0.2392,43.8975L-0.1792,43.9392L-0.1592,43.9278L-0.126,43.9432L-0.0453,43.961L-0.036,43.9842L0.007,43.9539L-0.0208,43.929L0.0592,43.8961L0.0763,43.9167L0.0558,43.9614L0.127,44.0018L0.1567,43.973L0.1919,44.0152L0.2293,44.0108L0.3007,43.9909L0.3149,44.0097L0.3812,44.0067L0.4428,44.0293L0.4615,44.0566L0.5564,44.0557L0.5934,44.0809L0.6642,44.0249L0.7405,44.0622L0.7581,44.1079L0.7996,44.1116L0.7908,44.1441L0.8637,44.1271L0.8957,44.1384L0.887,44.1755L0.9083,44.191L0.93,44.2669L0.9177,44.3024L0.871,44.3101L0.898,44.381L0.9222,44.3839L0.9537,44.3616L1.0632,44.3656L1.0575,44.4266L1.0197,44.4446L1.0174,44.536L1.0471,44.5608L1.1064,44.5723L1.0968,44.5924L1.1559,44.6378L1.15,44.6688L1.2254,44.6825L1.3242,44.7634L1.3,44.7947L1.3677,44.8098L1.3635,44.8423L1.4417,44.878L1.4138,44.9099L1.4426,44.9159L1.4103,45.0045L1.5358,45.0466L1.6317,45.0323L1.6835,45.0038L1.7069,44.9689L1.7502,44.9563L1.7509,44.9368L1.8024,44.9223L1.9083,44.9772L1.9406,44.9727L2.0612,44.9755L2.0909,44.8733L2.1714,44.7886L2.1294,44.6966L2.1587,44.6957L2.1715,44.6369L2.2076,44.6169L2.2151,44.6492L2.2949,44.6684L2.3266,44.6704L2.3522,44.6405L2.4838,44.6507L2.4994,44.6889L2.5601,44.72L2.5499,44.7533L2.6004,44.792L2.6046,44.8457L2.737,44.9413L2.7744,44.9121L2.7729,44.8559L2.8048,44.8745L2.8595,44.8744L2.8882,44.7893L2.9204,44.7937L2.9371,44.7741L2.9367,44.68L2.9816,44.6445L3.0264,44.7284L3.046,44.8002L3.0723,44.8378L3.0988,44.8338L3.1032,44.8862L3.1313,44.9037L3.1916,44.8626L3.2359,44.8878L3.2232,44.9094L3.2855,44.9269L3.3709,44.9752L3.3714,44.96L3.415,44.9419L3.4167,44.8983L3.4862,44.8065L3.5057,44.8243L3.57,44.8359L3.5934,44.8757L3.6539,44.8759L3.6745,44.8541L3.6666,44.8287L3.7434,44.838L3.8095,44.7645L3.8358,44.7477L3.8756,44.7401L3.861,44.7112L3.8841,44.6967L3.8695,44.6783L3.8982,44.6451L3.9032,44.5943L3.9293,44.5693L3.9528,44.5708L3.9884,44.4723L4.0691,44.4055L4.0406,44.3915L4.0581,44.3638L4.0367,44.3302L4.0482,44.3192L4.13,44.3368L4.1429,44.3134L4.1785,44.3182L4.2573,44.2652L4.2887,44.2925L4.2879,44.3153L4.3264,44.3385L4.3921,44.3467L4.3957,44.2907L4.438,44.2835L4.4532,44.3387L4.5053,44.344L4.5488,44.3256L4.5585,44.3025L4.6493,44.2708Z" />
    <path id="FR-NAQ" class="regiao" data-nome="Nouvelle-Aquitaine" d="M-1.2617,45.9901L-1.2379,45.9834L-1.2362,45.9283L-1.1874,45.8843L-1.1951,45.8283L-1.2309,45.799L-1.2689,45.8803L-1.3867,45.9532L-1.4132,46.0467L-1.3704,46.0386L-1.3155,45.9937L-1.2617,45.9901Z M-1.5339,46.2017L-1.5607,46.2446L-1.4981,46.2569L-1.426,46.2011L-1.3661,46.2086L-1.2927,46.1873L-1.2789,46.1436L-1.3227,46.1452L-1.4621,46.2018L-1.5339,46.2017Z M2.2802,46.4197L2.2872,46.3814L2.3338,46.3722L2.3021,46.3432L2.3648,46.3104L2.3876,46.3315L2.4316,46.2961L2.4823,46.2802L2.5259,46.1874L2.5659,46.1555L2.5502,46.0862L2.5717,46.0474L2.6018,46.0351L2.5931,45.9913L2.6116,45.9721L2.5646,45.9568L2.5445,45.9324L2.5567,45.9138L2.5002,45.8867L2.4926,45.8641L2.4565,45.8664L2.4304,45.8347L2.3885,45.8255L2.4435,45.7592L2.485,45.7489L2.5237,45.7103L2.5218,45.6423L2.4862,45.6409L2.4613,45.5962L2.4893,45.561L2.5177,45.5543L2.4875,45.4192L2.5282,45.3921L2.4803,45.37L2.3866,45.4117L2.3685,45.3873L2.3596,45.3366L2.316,45.3215L2.289,45.2882L2.269,45.2911L2.2405,45.2485L2.1937,45.2213L2.2006,45.181L2.232,45.1651L2.1793,45.1367L2.1727,45.0817L2.1428,45.086L2.0983,45.0595L2.1427,45.001L2.1094,44.9813L2.0612,44.9755L1.9406,44.9727L1.9083,44.9772L1.8024,44.9223L1.7509,44.9368L1.7502,44.9563L1.7069,44.9689L1.6835,45.0038L1.6317,45.0323L1.5358,45.0466L1.4103,45.0045L1.4426,44.9159L1.4138,44.9099L1.4417,44.878L1.3635,44.8423L1.3677,44.8098L1.3,44.7947L1.3242,44.7634L1.2254,44.6825L1.15,44.6688L1.1559,44.6378L1.0968,44.5924L1.1064,44.5723L1.0471,44.5608L1.0174,44.536L1.0197,44.4446L1.0575,44.4266L1.0632,44.3656L0.9537,44.3616L0.9222,44.3839L0.898,44.381L0.871,44.3101L0.9177,44.3024L0.93,44.2669L0.9083,44.191L0.887,44.1755L0.8957,44.1384L0.8637,44.1271L0.7908,44.1441L0.7996,44.1116L0.7581,44.1079L0.7405,44.0622L0.6642,44.0249L0.5934,44.0809L0.5564,44.0557L0.4615,44.0566L0.4428,44.0293L0.3812,44.0067L0.3149,44.0097L0.3007,43.9909L0.2293,44.0108L0.1919,44.0152L0.1567,43.973L0.127,44.0018L0.0558,43.9614L0.0763,43.9167L0.0592,43.8961L-0.0208,43.929L0.007,43.9539L-0.036,43.9842L-0.0453,43.961L-0.126,43.9432L-0.1592,43.9278L-0.1792,43.9392L-0.2392,43.8975L-0.1859,43.8683L-0.2081,43.8577L-0.193,43.81L-0.2261,43.8082L-0.2182,43.7504L-0.1942,43.7373L-0.2494,43.7072L-0.2417,43.6547L-0.2815,43.6429L-0.2793,43.6183L-0.2471,43.6157L-0.2384,43.5826L-0.1769,43.5963L-0.1603,43.5804L-0.0963,43.582L-0.0935,43.5434L-0.0662,43.5481L-0.0401,43.5125L-0.0499,43.4918L-0.0183,43.4721L-0.0658,43.4631L-0.0711,43.4352L-0.0428,43.4103L-0.0007,43.4454L-0.0036,43.3724L0.0297,43.3463L0.0102,43.3254L-0.0266,43.3292L-0.0462,43.3014L-0.0173,43.2705L-0.0493,43.2185L-0.0731,43.2228L-0.0678,43.1768L-0.1061,43.1664L-0.146,43.1287L-0.193,43.114L-0.1989,43.0667L-0.18,43.0516L-0.2608,43.037L-0.2595,43.0143L-0.2881,43.0052L-0.2814,42.9339L-0.3277,42.9172L-0.3136,42.8493L-0.3951,42.7988L-0.4432,42.7953L-0.5067,42.8272L-0.5525,42.7778L-0.6789,42.8848L-0.7326,42.8966L-0.7305,42.9454L-0.7547,42.9681L-0.8091,42.9512L-0.9063,42.9638L-0.944,42.9534L-1.1149,43.0242L-1.1428,43.0082L-1.1642,43.0355L-1.2292,43.0555L-1.2629,43.0438L-1.3094,43.0687L-1.2712,43.1186L-1.3445,43.0947L-1.3542,43.0286L-1.4403,43.0463L-1.4734,43.0884L-1.4146,43.1277L-1.3822,43.1892L-1.3887,43.2579L-1.5351,43.2938L-1.5627,43.2882L-1.5763,43.2496L-1.6083,43.2519L-1.6243,43.3069L-1.6693,43.3152L-1.7293,43.2963L-1.7375,43.3304L-1.7869,43.3508L-1.7887,43.3741L-1.6779,43.3979L-1.6675,43.389L-1.6002,43.4338L-1.4465,43.6483L-1.2969,44.211L-1.257,44.5434L-1.194,44.6581L-1.1511,44.6623L-1.1409,44.6412L-1.0364,44.6469L-1.0181,44.678L-1.034,44.6958L-1.1674,44.7751L-1.1737,44.7447L-1.2327,44.6926L-1.262,44.6322L-1.1626,45.2981L-1.1574,45.4755L-1.095,45.5563L-1.0615,45.5736L-1.0404,45.5362L-1.0672,45.5117L-0.9326,45.4402L-0.8048,45.3462L-0.6894,45.0877L-0.6077,45.0146L-0.5832,45.0158L-0.6667,45.1248L-0.7158,45.3278L-0.7832,45.4606L-0.9149,45.5492L-0.9703,45.5603L-1.0238,45.6225L-1.0996,45.6399L-1.2058,45.6964L-1.2362,45.6922L-1.2377,45.7857L-1.1341,45.8026L-1.1793,45.853L-1.1157,45.8587L-1.0758,45.9075L-1.0845,45.9788L-1.0529,46.0024L-1.1019,46.0947L-1.1436,46.1062L-1.1295,46.1267L-1.2077,46.145L-1.2389,46.1634L-1.2057,46.1852L-1.2016,46.2114L-1.1115,46.2597L-1.1345,46.3022L-1.1164,46.3164L-1.0754,46.3171L-1.0541,46.3497L-0.9751,46.3514L-0.9618,46.3224L-0.9321,46.31L-0.8874,46.3266L-0.8509,46.3172L-0.8276,46.3376L-0.8026,46.3248L-0.7221,46.3022L-0.698,46.3255L-0.6477,46.317L-0.6389,46.3384L-0.601,46.3601L-0.5591,46.3598L-0.5395,46.3852L-0.6381,46.4325L-0.609,46.4555L-0.6482,46.521L-0.6045,46.5329L-0.6279,46.5759L-0.6149,46.6221L-0.6577,46.6367L-0.6361,46.6638L-0.6788,46.6867L-0.6554,46.7006L-0.7191,46.7558L-0.7177,46.7971L-0.6977,46.8098L-0.775,46.8398L-0.8306,46.8847L-0.8075,46.9208L-0.8592,46.9342L-0.8958,46.9745L-0.8523,46.9698L-0.8431,46.9898L-0.8084,46.9873L-0.7873,47.0054L-0.7146,46.984L-0.6704,47.0033L-0.5991,46.997L-0.5439,47.0326L-0.5566,47.0642L-0.495,47.0836L-0.4587,47.069L-0.408,47.0668L-0.397,47.0913L-0.3407,47.087L-0.2661,47.1058L-0.205,47.0943L-0.1846,47.1084L-0.1432,47.1035L-0.1797,47.0702L-0.1299,47.0541L-0.1028,47.0643L-0.0869,47.1007L-0.0368,47.0865L-0.0409,47.1139L-0.0076,47.1602L0.0189,47.1752L0.0546,47.1642L0.0798,47.1461L0.0808,47.1194L0.1407,47.1253L0.1354,47.1075L0.2007,47.0918L0.1791,47.0592L0.2138,47.0541L0.2459,47.0716L0.2689,47.0427L0.3037,47.0513L0.3132,46.9984L0.2919,46.9904L0.3241,46.9305L0.3657,46.9493L0.4389,46.9293L0.506,46.9587L0.5986,46.957L0.5682,47.006L0.618,47.0074L0.6343,46.9859L0.6919,46.9736L0.7047,46.9031L0.7526,46.8595L0.7964,46.8495L0.8153,46.789L0.9129,46.7267L0.9274,46.6939L0.904,46.6794L0.9165,46.6503L0.8923,46.6292L0.9104,46.601L0.9634,46.5711L1.0141,46.5669L1.0196,46.5361L1.0926,46.5365L1.1441,46.5072L1.1505,46.4486L1.2118,46.4337L1.1963,46.4018L1.2184,46.3658L1.2586,46.3782L1.3034,46.3715L1.3131,46.3949L1.3539,46.3998L1.4152,46.3461L1.5259,46.4267L1.5448,46.3926L1.6094,46.4214L1.6285,46.3881L1.6855,46.4185L1.7289,46.3903L1.7599,46.4254L1.7474,46.4503L1.7829,46.4565L1.8389,46.4257L1.8847,46.4417L1.9318,46.4312L1.9787,46.443L2.0883,46.41L2.1963,46.4284L2.2802,46.4197Z" />
    <path id="FR-NOR" class="regiao" data-nome="Normandie" d="M1.7037,49.2311L1.6739,49.2107L1.6573,49.1311L1.6224,49.0853L1.526,49.0692L1.4888,49.0504L1.4485,49.0533L1.4789,49.0138L1.4707,48.9757L1.5015,48.9401L1.4482,48.9235L1.4715,48.8968L1.4605,48.8718L1.3623,48.8344L1.3727,48.7811L1.3327,48.7611L1.2229,48.7579L1.1218,48.7893L1.1157,48.7465L1.0636,48.7583L1.0351,48.728L0.9891,48.7253L0.9224,48.709L0.8766,48.7155L0.8639,48.6877L0.8096,48.6635L0.8472,48.6096L0.8515,48.5825L0.9261,48.5603L0.9243,48.5369L0.9665,48.5236L0.9422,48.5001L0.9401,48.4562L0.9758,48.4404L0.9141,48.3726L0.7875,48.341L0.7553,48.2994L0.8061,48.2889L0.7881,48.2607L0.8302,48.2134L0.7976,48.1941L0.7604,48.1803L0.7379,48.1881L0.6838,48.2545L0.6535,48.2638L0.6238,48.2459L0.5354,48.2487L0.4793,48.2985L0.3921,48.3218L0.37,48.4118L0.3823,48.4249L0.3558,48.4593L0.301,48.4809L0.1725,48.4653L0.157,48.4416L0.0713,48.4088L0.058,48.3779L0.0143,48.3811L-0.001,48.3976L-0.0511,48.3748L-0.0508,48.4514L-0.1469,48.4571L-0.1739,48.5108L-0.1456,48.5282L-0.2076,48.5638L-0.2495,48.5645L-0.2417,48.5365L-0.2717,48.5075L-0.3215,48.5225L-0.3535,48.4843L-0.3971,48.51L-0.5104,48.509L-0.5517,48.4732L-0.598,48.4716L-0.652,48.4442L-0.6641,48.4854L-0.7141,48.4501L-0.7604,48.4362L-0.7793,48.4655L-0.8143,48.4554L-0.8459,48.4995L-0.9095,48.4968L-0.9563,48.5174L-0.9735,48.4945L-1.0047,48.4894L-1.0702,48.5083L-1.2541,48.544L-1.2795,48.5096L-1.3289,48.499L-1.3542,48.469L-1.4216,48.461L-1.4507,48.4872L-1.4888,48.4892L-1.5722,48.6346L-1.5126,48.6203L-1.4263,48.643L-1.4511,48.6714L-1.499,48.6838L-1.528,48.7304L-1.5684,48.7438L-1.5745,48.8218L-1.5843,48.8487L-1.5624,48.9254L-1.5578,49.0264L-1.5999,49.0382L-1.61,49.1024L-1.5927,49.1358L-1.6275,49.2092L-1.6867,49.2887L-1.7079,49.3286L-1.7881,49.3755L-1.8104,49.3726L-1.8487,49.5039L-1.8885,49.5341L-1.8413,49.571L-1.8493,49.6313L-1.876,49.6592L-1.9481,49.6751L-1.9422,49.7262L-1.8862,49.7058L-1.8511,49.7177L-1.8246,49.6907L-1.7639,49.6783L-1.6094,49.6574L-1.5347,49.6548L-1.4882,49.6685L-1.4743,49.6972L-1.3706,49.707L-1.2662,49.6964L-1.23,49.6071L-1.2561,49.613L-1.2733,49.5854L-1.299,49.5823L-1.3105,49.5477L-1.1677,49.4071L-1.2026,49.3345L-1.1556,49.3625L-1.1189,49.3598L-1.0753,49.3896L-0.9659,49.3972L-0.7559,49.3487L-0.3947,49.3328L-0.2797,49.2923L-0.2229,49.2804L-0.0868,49.2969L-0.0016,49.3245L0.1267,49.401L0.271,49.4383L0.1643,49.4526L0.0905,49.4822L0.065,49.5126L0.1524,49.6452L0.1637,49.6866L0.2066,49.7132L0.3365,49.7469L0.5863,49.8566L0.7725,49.8747L0.9597,49.9259L1.0187,49.9149L1.1946,49.9687L1.3778,50.0641L1.4085,50.0568L1.449,50.0699L1.4525,50.0394L1.7121,49.8867L1.7342,49.8149L1.786,49.7624L1.7493,49.7634L1.7462,49.7391L1.7134,49.7346L1.6974,49.6443L1.7213,49.6233L1.6941,49.6011L1.6964,49.5824L1.7487,49.5381L1.7597,49.5115L1.7906,49.5036L1.7723,49.4697L1.7254,49.4402L1.7142,49.4072L1.7612,49.3658L1.7725,49.2912L1.8041,49.274L1.7892,49.2455L1.758,49.2718L1.7093,49.2641L1.7037,49.2311Z" />
    <path id="FR-IDF" class="regiao" data-nome="Île-de-France" d="M1.7037,49.2311L1.7145,49.2062L1.7544,49.1749L1.8034,49.1847L1.8351,49.1636L1.883,49.1622L1.9758,49.1829L2.0018,49.1752L2.0809,49.2097L2.0961,49.1894L2.1478,49.1879L2.1705,49.1629L2.2184,49.1787L2.2328,49.1506L2.2852,49.1591L2.3135,49.1858L2.3573,49.1475L2.3747,49.1591L2.4598,49.1404L2.532,49.0995L2.5522,49.1242L2.5832,49.0796L2.6327,49.1082L2.6911,49.0663L2.7337,49.0608L2.8081,49.0966L2.8517,49.0702L2.9002,49.0841L2.9409,49.077L2.9686,49.0915L3.0664,49.0851L3.0698,49.1169L3.1643,49.0985L3.153,49.0824L3.1902,49.05L3.1668,49.0121L3.2508,48.9723L3.2641,48.9387L3.3042,48.9486L3.3282,48.908L3.3669,48.9282L3.3822,48.8718L3.4845,48.8522L3.4862,48.814L3.4406,48.8032L3.408,48.7841L3.3935,48.7586L3.4674,48.7384L3.4758,48.6987L3.439,48.6642L3.4501,48.6357L3.5192,48.6334L3.5005,48.6054L3.5129,48.5905L3.4637,48.5712L3.4798,48.5423L3.4053,48.5286L3.4368,48.4912L3.3822,48.4804L3.4048,48.4539L3.3907,48.4253L3.4213,48.4161L3.4138,48.3905L3.3752,48.4003L3.3643,48.3727L3.3354,48.3701L3.2819,48.3819L3.2539,48.3649L3.1401,48.373L3.103,48.3493L3.0469,48.3597L3.0149,48.3054L3.047,48.25L3.0041,48.2072L2.9371,48.1838L2.9368,48.1634L2.8661,48.1565L2.8192,48.1302L2.7988,48.1691L2.7053,48.1238L2.5591,48.1413L2.5214,48.1246L2.4435,48.1243L2.4831,48.1651L2.5174,48.1674L2.5169,48.2261L2.4702,48.2548L2.4236,48.2599L2.404,48.3159L2.3588,48.308L2.3275,48.3332L2.2983,48.3125L2.2027,48.3442L2.1631,48.2987L2.1044,48.307L2.0406,48.2845L1.9722,48.2882L1.9681,48.3412L1.9879,48.3631L1.9654,48.3801L1.9771,48.4011L1.9276,48.4055L1.9069,48.4395L1.8434,48.4462L1.8356,48.4666L1.8013,48.4661L1.7755,48.5127L1.7869,48.5531L1.757,48.5738L1.709,48.5765L1.715,48.614L1.666,48.6137L1.6423,48.6494L1.6021,48.6645L1.6124,48.6883L1.5771,48.7024L1.627,48.7464L1.5816,48.7607L1.5771,48.8444L1.546,48.87L1.5634,48.8901L1.5015,48.9401L1.4707,48.9757L1.4789,49.0138L1.4485,49.0533L1.4888,49.0504L1.526,49.0692L1.6224,49.0853L1.6573,49.1311L1.6739,49.2107L1.7037,49.2311Z" />
    <path id="FR-HDF" class="regiao" data-nome="Hauts-de-France" d="M4.232,49.9591L4.2176,49.9141L4.2556,49.9042L4.2533,49.8686L4.2061,49.7803L4.2499,49.7573L4.1852,49.6993L4.1263,49.6783L4.1151,49.6333L4.041,49.638L4.0235,49.6222L4.0779,49.5713L4.0498,49.545L4.0793,49.5246L4.0414,49.5069L4.0365,49.3601L3.9593,49.3773L3.9236,49.4066L3.8553,49.3801L3.8509,49.3447L3.7775,49.3562L3.6449,49.3134L3.6654,49.2687L3.6517,49.2538L3.6777,49.2346L3.6535,49.2126L3.748,49.1587L3.7045,49.1421L3.6857,49.1539L3.6216,49.1502L3.6002,49.1194L3.6375,49.077L3.5863,49.0601L3.5845,49.0368L3.65,49.043L3.6771,49.0141L3.6407,49.0041L3.6202,48.9662L3.5893,48.9601L3.5696,48.9146L3.5272,48.912L3.4845,48.8522L3.3822,48.8718L3.3669,48.9282L3.3282,48.908L3.3042,48.9486L3.2641,48.9387L3.2508,48.9723L3.1668,49.0121L3.1902,49.05L3.153,49.0824L3.1643,49.0985L3.0698,49.1169L3.0664,49.0851L2.9686,49.0915L2.9409,49.077L2.9002,49.0841L2.8517,49.0702L2.8081,49.0966L2.7337,49.0608L2.6911,49.0663L2.6327,49.1082L2.5832,49.0796L2.5522,49.1242L2.532,49.0995L2.4598,49.1404L2.3747,49.1591L2.3573,49.1475L2.3135,49.1858L2.2852,49.1591L2.2328,49.1506L2.2184,49.1787L2.1705,49.1629L2.1478,49.1879L2.0961,49.1894L2.0809,49.2097L2.0018,49.1752L1.9758,49.1829L1.883,49.1622L1.8351,49.1636L1.8034,49.1847L1.7544,49.1749L1.7145,49.2062L1.7037,49.2311L1.7093,49.2641L1.758,49.2718L1.7892,49.2455L1.8041,49.274L1.7725,49.2912L1.7612,49.3658L1.7142,49.4072L1.7254,49.4402L1.7723,49.4697L1.7906,49.5036L1.7597,49.5115L1.7487,49.5381L1.6964,49.5824L1.6941,49.6011L1.7213,49.6233L1.6974,49.6443L1.7134,49.7346L1.7462,49.7391L1.7493,49.7634L1.786,49.7624L1.7342,49.8149L1.7121,49.8867L1.4525,50.0394L1.449,50.0699L1.4085,50.0568L1.3778,50.0641L1.452,50.1083L1.4833,50.1735L1.5226,50.2068L1.557,50.2087L1.5878,50.1868L1.6115,50.1933L1.659,50.1745L1.6882,50.1881L1.677,50.209L1.6224,50.2142L1.5905,50.2559L1.5515,50.258L1.537,50.2823L1.5551,50.3612L1.624,50.3666L1.5539,50.4001L1.5862,50.5379L1.5759,50.5689L1.5621,50.7256L1.5934,50.732L1.6131,50.8034L1.5806,50.8708L1.6608,50.8857L1.7444,50.944L1.8703,50.9698L2.0997,51.0044L2.1497,51.0208L2.2053,51.027L2.3536,51.0591L2.3813,51.0465L2.5443,51.0888L2.5743,51.0022L2.6077,50.9899L2.6324,50.947L2.5908,50.9193L2.6094,50.8977L2.6001,50.8492L2.6358,50.812L2.6691,50.8216L2.7234,50.8099L2.7897,50.7261L2.8469,50.7222L2.9066,50.6915L2.9527,50.7513L3.0153,50.7737L3.0878,50.7724L3.1121,50.7936L3.1511,50.7894L3.1911,50.7246L3.2604,50.7011L3.265,50.6759L3.239,50.6575L3.2787,50.5948L3.2912,50.524L3.3757,50.4908L3.447,50.5061L3.4744,50.5328L3.5185,50.5232L3.5003,50.4869L3.6083,50.4957L3.6604,50.4563L3.6754,50.4029L3.6588,50.3696L3.7086,50.3051L3.7482,50.3512L3.8509,50.3521L3.9028,50.327L4.0254,50.359L4.0772,50.3109L4.1178,50.3035L4.1385,50.258L4.1632,50.2892L4.2094,50.2721L4.2221,50.2528L4.1517,50.2129L4.156,50.1631L4.1294,50.1335L4.2012,50.1328L4.1984,50.1052L4.2314,50.0691L4.1629,50.049L4.1373,50.0193L4.1633,50.0008L4.147,49.9766L4.232,49.9591Z" />
    <path id="FR-GES" class="regiao" data-nome="Grand Est" d="M7.1325,47.503L7.143,47.5247L7.086,47.5929L7.0052,47.6022L7.0481,47.6819L7.0152,47.7428L6.8658,47.7824L6.841,47.8197L6.8233,47.8147L6.786,47.8503L6.6463,47.9038L6.6074,47.945L6.5639,47.9327L6.5438,47.9031L6.4786,47.8856L6.4357,47.9417L6.3895,47.9606L6.2877,47.9557L6.2079,47.9473L6.1649,47.9773L6.1357,48.0194L6.0403,48.0035L6.0032,47.9565L5.9715,47.9572L5.9333,47.9775L5.8841,47.9253L5.8844,47.9003L5.8481,47.9047L5.828,47.8525L5.761,47.8598L5.7418,47.8203L5.6912,47.8211L5.6763,47.7795L5.7059,47.7681L5.7091,47.7471L5.6848,47.7227L5.691,47.6851L5.5971,47.6725L5.5678,47.7078L5.5258,47.6733L5.4831,47.6842L5.4625,47.6722L5.4202,47.6771L5.3554,47.5909L5.3225,47.6123L5.2547,47.5763L5.239,47.6162L5.1742,47.652L5.1791,47.6801L5.1182,47.6463L5.0617,47.6951L5.0292,47.7104L4.969,47.686L4.9592,47.7621L4.916,47.7672L4.9926,47.8081L4.9539,47.8669L4.9408,47.8669L4.9034,47.9214L4.8318,47.9091L4.8656,47.9407L4.8459,47.9609L4.785,47.9627L4.8095,47.9889L4.7934,48.0062L4.7378,48.0051L4.7003,48.0242L4.6704,48.0142L4.5789,48.0294L4.5362,48.0068L4.5549,47.9682L4.3146,47.9615L4.2929,47.9251L4.2025,47.9415L4.1673,47.9596L4.1102,47.926L4.0896,47.945L4.0602,47.9458L4.0447,47.9252L4.0045,47.9426L3.9862,47.9304L3.8948,47.9293L3.9135,47.9797L3.8518,47.983L3.8392,48.0039L3.8719,48.0149L3.8223,48.0441L3.7913,48.1178L3.7397,48.1325L3.7484,48.1658L3.6672,48.1401L3.6303,48.19L3.5789,48.1847L3.6211,48.2257L3.6005,48.2327L3.6187,48.2689L3.5772,48.2842L3.5869,48.3008L3.5435,48.3198L3.5034,48.3668L3.4661,48.3766L3.4277,48.3588L3.4138,48.3905L3.4213,48.4161L3.3907,48.4253L3.4048,48.4539L3.3822,48.4804L3.4368,48.4912L3.4053,48.5286L3.4798,48.5423L3.4637,48.5712L3.5129,48.5905L3.5005,48.6054L3.5192,48.6334L3.4501,48.6357L3.439,48.6642L3.4758,48.6987L3.4674,48.7384L3.3935,48.7586L3.408,48.7841L3.4406,48.8032L3.4862,48.814L3.4845,48.8522L3.5272,48.912L3.5696,48.9146L3.5893,48.9601L3.6202,48.9662L3.6407,49.0041L3.6771,49.0141L3.65,49.043L3.5845,49.0368L3.5863,49.0601L3.6375,49.077L3.6002,49.1194L3.6216,49.1502L3.6857,49.1539L3.7045,49.1421L3.748,49.1587L3.6535,49.2126L3.6777,49.2346L3.6517,49.2538L3.6654,49.2687L3.6449,49.3134L3.7775,49.3562L3.8509,49.3447L3.8553,49.3801L3.9236,49.4066L3.9593,49.3773L4.0365,49.3601L4.0414,49.5069L4.0793,49.5246L4.0498,49.545L4.0779,49.5713L4.0235,49.6222L4.041,49.638L4.1151,49.6333L4.1263,49.6783L4.1852,49.6993L4.2499,49.7573L4.2061,49.7803L4.2533,49.8686L4.2556,49.9042L4.2176,49.9141L4.232,49.9591L4.3099,49.9696L4.4463,49.9378L4.5245,49.951L4.5978,49.9871L4.6924,49.9959L4.6933,50.0851L4.8264,50.1684L4.8959,50.1367L4.8507,50.1016L4.8377,50.0672L4.8408,50.0381L4.7892,49.9688L4.847,49.9483L4.8879,49.9096L4.8468,49.8668L4.8745,49.8197L4.8514,49.793L4.9058,49.7858L4.9953,49.8001L5.0085,49.7821L5.0941,49.7628L5.1273,49.7134L5.1622,49.7157L5.1663,49.6933L5.243,49.6853L5.2694,49.6965L5.3316,49.654L5.3481,49.6309L5.4296,49.596L5.4728,49.4979L5.5567,49.53L5.6115,49.5073L5.6425,49.5501L5.7461,49.5389L5.7731,49.5631L5.8688,49.4987L5.9663,49.4933L5.98,49.4514L6.0417,49.4474L6.0572,49.4665L6.1001,49.4533L6.1271,49.4929L6.1558,49.5039L6.2402,49.5138L6.3344,49.4672L6.3646,49.4597L6.4268,49.4767L6.5423,49.4322L6.5397,49.4023L6.6008,49.3657L6.5671,49.347L6.6141,49.3016L6.6701,49.28L6.6896,49.2497L6.7121,49.1874L6.7392,49.1643L6.7803,49.1687L6.8359,49.1532L6.8625,49.1809L6.8385,49.2128L6.8607,49.2229L6.8934,49.2093L6.9388,49.2229L7.0121,49.1875L7.034,49.1907L7.0514,49.1139L7.1252,49.1417L7.1568,49.1201L7.1972,49.1148L7.2456,49.1295L7.2936,49.1145L7.3259,49.1431L7.3622,49.1428L7.3646,49.1709L7.4445,49.1832L7.4938,49.1684L7.5279,49.0971L7.6314,49.0729L7.6331,49.0546L7.6734,49.0446L7.794,49.0659L7.8662,49.0337L7.9337,49.0581L7.9764,49.0278L8.0515,49.0144L8.0928,48.9901L8.1999,48.9678L8.1491,48.9046L8.0895,48.8026L8.0298,48.7861L8.0158,48.7606L7.972,48.7574L7.9641,48.7222L7.8393,48.6412L7.8003,48.5842L7.8062,48.5148L7.7686,48.4903L7.7327,48.3945L7.745,48.3273L7.6934,48.3019L7.6668,48.2217L7.5771,48.1205L7.5698,48.0341L7.6226,47.9718L7.5569,47.8788L7.5624,47.841L7.53,47.779L7.5482,47.7334L7.5118,47.6971L7.5234,47.6609L7.5917,47.6042L7.5834,47.5754L7.4992,47.5393L7.5307,47.5277L7.5112,47.498L7.3864,47.4322L7.3286,47.4413L7.2432,47.4213L7.2323,47.4393L7.17,47.4439L7.2018,47.4941L7.1325,47.503Z" />
    <path id="FR-COR" class="regiao" data-nome="Corse" d="M8.7752,41.5927L8.8044,41.6412L8.8197,41.6292L8.8727,41.6465L8.9159,41.6873L8.8121,41.7138L8.7816,41.6993L8.7748,41.7407L8.7069,41.7211L8.7046,41.7387L8.6588,41.7399L8.7305,41.7759L8.712,41.8017L8.7717,41.8111L8.7883,41.85L8.7784,41.8824L8.803,41.895L8.7481,41.9329L8.719,41.9077L8.6418,41.9099L8.5926,41.9649L8.6484,41.9684L8.669,41.9827L8.6601,42.0122L8.7472,42.0494L8.719,42.0632L8.6998,42.1121L8.6591,42.1003L8.6119,42.1345L8.5805,42.1279L8.5844,42.1787L8.5726,42.2279L8.5396,42.2372L8.6944,42.2665L8.6599,42.3022L8.6039,42.3054L8.6276,42.3319L8.6144,42.3495L8.5523,42.3336L8.5685,42.3688L8.6084,42.3862L8.605,42.4161L8.6547,42.4151L8.6479,42.4422L8.6795,42.4687L8.6483,42.4784L8.6662,42.5155L8.7199,42.5251L8.7272,42.5612L8.7548,42.5713L8.7885,42.5534L8.8018,42.6022L8.8667,42.6081L8.8786,42.6289L8.932,42.6463L8.9471,42.6333L9.0149,42.6409L9.0602,42.6609L9.0576,42.6961L9.1246,42.7312L9.2217,42.7349L9.2985,42.6763L9.3446,42.7356L9.3423,42.7945L9.3092,42.8327L9.3401,42.8654L9.3217,42.8996L9.361,42.9236L9.3399,42.9935L9.423,43.0108L9.4635,42.9858L9.4513,42.962L9.4929,42.8063L9.4459,42.6746L9.5327,42.5475L9.5322,42.3699L9.5598,42.2818L9.5587,42.1948L9.5492,42.1029L9.4119,41.9529L9.394,41.7988L9.4064,41.7135L9.3726,41.6789L9.3865,41.6454L9.3083,41.6284L9.3186,41.6049L9.3697,41.5943L9.344,41.559L9.2743,41.5304L9.279,41.4642L9.2236,41.4425L9.2277,41.4173L9.2601,41.4136L9.2215,41.3663L9.1803,41.364L9.1575,41.3921L9.0939,41.3939L9.121,41.4375L9.0703,41.4441L9.0399,41.4564L8.9989,41.4897L8.9205,41.4888L8.8539,41.5467L8.7873,41.5556L8.8043,41.5747L8.7752,41.5927Z" />
    <path id="FR-CVL" class="regiao" data-nome="Centre-Val de Loire" d="M1.5015,48.9401L1.5634,48.8901L1.546,48.87L1.5771,48.8444L1.5816,48.7607L1.627,48.7464L1.5771,48.7024L1.6124,48.6883L1.6021,48.6645L1.6423,48.6494L1.666,48.6137L1.715,48.614L1.709,48.5765L1.757,48.5738L1.7869,48.5531L1.7755,48.5127L1.8013,48.4661L1.8356,48.4666L1.8434,48.4462L1.9069,48.4395L1.9276,48.4055L1.9771,48.4011L1.9654,48.3801L1.9879,48.3631L1.9681,48.3412L1.9722,48.2882L2.0406,48.2845L2.1044,48.307L2.1631,48.2987L2.2027,48.3442L2.2983,48.3125L2.3275,48.3332L2.3588,48.308L2.404,48.3159L2.4236,48.2599L2.4702,48.2548L2.5169,48.2261L2.5174,48.1674L2.4831,48.1651L2.4435,48.1243L2.5214,48.1246L2.5591,48.1413L2.7053,48.1238L2.7988,48.1691L2.8192,48.1302L2.8661,48.1565L2.9368,48.1634L3.0293,48.1336L3.0495,48.0736L3.1246,48.0302L3.1278,47.9731L3.05,47.9112L3.0091,47.9064L3.0127,47.8738L3.0324,47.8501L3.0131,47.8338L3.0253,47.7871L2.8517,47.7576L2.8477,47.717L2.9261,47.6819L2.9188,47.6686L2.9533,47.6452L2.9322,47.6266L2.9364,47.5989L2.9763,47.5694L2.8606,47.547L2.8481,47.5381L2.9306,47.4382L2.8675,47.3385L2.8793,47.3168L2.9814,47.2618L2.978,47.2286L3.0304,47.1214L3.0176,47.0644L3.0775,47.0239L3.0635,46.9749L3.0793,46.9558L3.0492,46.9076L3.0688,46.8518L3.0311,46.7949L2.9634,46.8043L2.9206,46.7929L2.8494,46.7457L2.8461,46.7258L2.7983,46.7348L2.7607,46.717L2.7333,46.7474L2.7013,46.7187L2.624,46.6903L2.5698,46.6589L2.5956,46.6392L2.5662,46.6086L2.6034,46.5944L2.6144,46.5532L2.5362,46.5189L2.4866,46.5324L2.3605,46.5165L2.3229,46.4704L2.2981,46.4703L2.2802,46.4197L2.1963,46.4284L2.0883,46.41L1.9787,46.443L1.9318,46.4312L1.8847,46.4417L1.8389,46.4257L1.7829,46.4565L1.7474,46.4503L1.7599,46.4254L1.7289,46.3903L1.6855,46.4185L1.6285,46.3881L1.6094,46.4214L1.5448,46.3926L1.5259,46.4267L1.4152,46.3461L1.3539,46.3998L1.3131,46.3949L1.3034,46.3715L1.2586,46.3782L1.2184,46.3658L1.1963,46.4018L1.2118,46.4337L1.1505,46.4486L1.1441,46.5072L1.0926,46.5365L1.0196,46.5361L1.0141,46.5669L0.9634,46.5711L0.9104,46.601L0.8923,46.6292L0.9165,46.6503L0.904,46.6794L0.9274,46.6939L0.9129,46.7267L0.8153,46.789L0.7964,46.8495L0.7526,46.8595L0.7047,46.9031L0.6919,46.9736L0.6343,46.9859L0.618,47.0074L0.5682,47.006L0.5986,46.957L0.506,46.9587L0.4389,46.9293L0.3657,46.9493L0.3241,46.9305L0.2919,46.9904L0.3132,46.9984L0.3037,47.0513L0.2689,47.0427L0.2459,47.0716L0.2138,47.0541L0.1791,47.0592L0.2007,47.0918L0.1354,47.1075L0.1407,47.1253L0.0808,47.1194L0.0798,47.1461L0.0546,47.1642L0.0793,47.2177L0.0774,47.2817L0.1467,47.3469L0.1396,47.3616L0.1824,47.3817L0.153,47.3995L0.2217,47.5002L0.2264,47.5274L0.1943,47.5392L0.2341,47.5966L0.2568,47.612L0.3842,47.5702L0.4036,47.5786L0.365,47.6196L0.3838,47.6436L0.4248,47.6163L0.4497,47.6191L0.4644,47.6449L0.5966,47.6718L0.5862,47.7177L0.6272,47.7516L0.7021,47.7667L0.6928,47.783L0.7689,47.8318L0.7609,47.9003L0.8154,47.9317L0.8489,47.9396L0.8186,47.9856L0.8421,48.0292L0.7972,48.0366L0.7936,48.07L0.8429,48.0724L0.8508,48.1331L0.9157,48.1386L0.7976,48.1941L0.8302,48.2134L0.7881,48.2607L0.8061,48.2889L0.7553,48.2994L0.7875,48.341L0.9141,48.3726L0.9758,48.4404L0.9401,48.4562L0.9422,48.5001L0.9665,48.5236L0.9243,48.5369L0.9261,48.5603L0.8515,48.5825L0.8472,48.6096L0.8096,48.6635L0.8639,48.6877L0.8766,48.7155L0.9224,48.709L0.9891,48.7253L1.0351,48.728L1.0636,48.7583L1.1157,48.7465L1.1218,48.7893L1.2229,48.7579L1.3327,48.7611L1.3727,48.7811L1.3623,48.8344L1.4605,48.8718L1.4715,48.8968L1.4482,48.9235L1.5015,48.9401Z" />
    <path id="FR-BRE" class="regiao" data-nome="Bretagne" d="M-3.2479,47.3874L-3.2152,47.3732L-3.1575,47.364L-3.1399,47.3291L-3.0618,47.314L-3.0928,47.2776L-3.1687,47.3012L-3.2187,47.2925L-3.2364,47.3275L-3.2633,47.352L-3.2479,47.3874Z M-1.5722,48.6346L-1.4888,48.4892L-1.4507,48.4872L-1.4216,48.461L-1.3542,48.469L-1.3289,48.499L-1.2795,48.5096L-1.2541,48.544L-1.0702,48.5083L-1.0814,48.4146L-1.0455,48.3288L-1.1015,48.2662L-1.0748,48.2008L-1.051,48.0906L-1.0216,48.0687L-1.0336,48.0318L-1.0168,48.003L-1.0501,47.9841L-1.1243,47.9863L-1.1553,47.9647L-1.1874,47.8676L-1.2218,47.8515L-1.2468,47.7764L-1.3633,47.799L-1.3881,47.828L-1.4787,47.8352L-1.4729,47.8029L-1.6219,47.7635L-1.6598,47.7095L-1.7699,47.6974L-1.86,47.7086L-1.9548,47.6713L-1.973,47.6937L-2.052,47.6487L-2.0981,47.6311L-2.0815,47.6113L-2.1007,47.5941L-2.098,47.5328L-2.1573,47.5215L-2.245,47.4944L-2.2593,47.5139L-2.2986,47.5161L-2.3175,47.4609L-2.4018,47.4561L-2.4235,47.4768L-2.4579,47.4479L-2.4955,47.4499L-2.5017,47.492L-2.441,47.4982L-2.5096,47.5242L-2.622,47.5041L-2.657,47.5182L-2.6815,47.4936L-2.7261,47.506L-2.8154,47.4862L-2.8499,47.4981L-2.8738,47.5329L-2.9113,47.5531L-2.9576,47.5647L-3.0199,47.5671L-3.0402,47.5785L-3.1232,47.5692L-3.1278,47.5134L-3.0796,47.4684L-3.1311,47.4728L-3.1625,47.5289L-3.135,47.5444L-3.1494,47.5952L-3.286,47.6851L-3.3394,47.6953L-3.3658,47.7106L-3.4535,47.6956L-3.5271,47.7636L-3.6789,47.776L-3.7276,47.8049L-3.7621,47.7903L-3.8549,47.7906L-3.902,47.8344L-3.8816,47.8585L-3.9306,47.8713L-3.9463,47.9023L-3.9892,47.8832L-3.9747,47.8544L-4.0414,47.8428L-4.1057,47.8714L-4.1465,47.8566L-4.1914,47.7962L-4.3676,47.796L-4.3835,47.8135L-4.3465,47.833L-4.3581,47.8876L-4.421,47.9622L-4.5107,48.005L-4.5488,48.0114L-4.5689,47.9996L-4.6322,48.0284L-4.6971,48.0257L-4.7144,48.0644L-4.5523,48.0761L-4.5358,48.0901L-4.4861,48.0867L-4.4165,48.1069L-4.3625,48.1094L-4.3051,48.0892L-4.2672,48.1299L-4.3156,48.204L-4.373,48.2059L-4.3781,48.2188L-4.4635,48.2391L-4.4986,48.2323L-4.5175,48.1925L-4.552,48.2099L-4.5719,48.2346L-4.5598,48.2595L-4.6214,48.2545L-4.6281,48.2798L-4.5022,48.2809L-4.4513,48.2967L-4.4184,48.2942L-4.3978,48.2748L-4.3068,48.2979L-4.3368,48.3151L-4.3023,48.3307L-4.3667,48.3451L-4.3726,48.3265L-4.4579,48.3267L-4.3998,48.3834L-4.4748,48.385L-4.5217,48.3651L-4.6072,48.3385L-4.6808,48.3556L-4.7074,48.3317L-4.7727,48.3296L-4.7903,48.3616L-4.7616,48.3827L-4.795,48.4136L-4.7609,48.4675L-4.7768,48.5157L-4.7037,48.5702L-4.6105,48.5767L-4.6059,48.6044L-4.5691,48.6207L-4.4991,48.6214L-4.4404,48.6416L-4.4366,48.6548L-4.346,48.6775L-4.296,48.6649L-4.3119,48.6419L-4.2223,48.6589L-4.1862,48.6872L-4.0997,48.6957L-4.0589,48.6766L-4.0529,48.7062L-4.0011,48.712L-3.9579,48.6887L-3.9719,48.6744L-3.8556,48.6743L-3.8239,48.7196L-3.7857,48.7008L-3.7344,48.7079L-3.6804,48.6864L-3.6444,48.6961L-3.6105,48.6698L-3.5824,48.6704L-3.584,48.7247L-3.549,48.7454L-3.5848,48.7575L-3.5872,48.8066L-3.5354,48.8025L-3.5045,48.8399L-3.4805,48.8381L-3.4409,48.7987L-3.3983,48.8007L-3.3894,48.8162L-3.3203,48.8388L-3.2635,48.8348L-3.2247,48.8679L-3.206,48.8465L-3.0854,48.8683L-3.0995,48.8305L-3.0854,48.82L-3.0118,48.823L-3.0041,48.7996L-3.0436,48.7801L-2.9895,48.7627L-2.9511,48.7716L-2.9286,48.7555L-2.9451,48.7207L-2.817,48.6486L-2.8218,48.5951L-2.7136,48.5556L-2.7121,48.5323L-2.633,48.537L-2.554,48.5996L-2.4731,48.6225L-2.488,48.645L-2.4367,48.6526L-2.4194,48.6292L-2.318,48.6885L-2.2831,48.6683L-2.3366,48.62L-2.3136,48.61L-2.2431,48.6443L-2.2455,48.6155L-2.2103,48.587L-2.1718,48.5964L-2.152,48.6334L-2.1123,48.6449L-2.0965,48.6329L-2.0272,48.6181L-1.9968,48.5825L-2.0148,48.5716L-1.9595,48.5498L-2.0001,48.6007L-1.9976,48.6153L-2.0332,48.6346L-2.0307,48.6507L-1.9349,48.702L-1.9052,48.6896L-1.8434,48.7123L-1.8356,48.6795L-1.8622,48.6672L-1.8684,48.6382L-1.8424,48.6152L-1.778,48.6042L-1.5722,48.6346Z" />
    <path id="FR-BFC" class="regiao" data-nome="Bourgogne-Franche-Comté" d="M7.1325,47.503L7.0759,47.4881L7.0237,47.5044L6.9829,47.494L7.0018,47.4536L6.9399,47.4328L6.8788,47.3527L7.0162,47.3727L7.0487,47.3622L7.0555,47.3336L7.0101,47.3245L6.9964,47.2945L6.943,47.2869L6.9552,47.2423L6.8412,47.1714L6.8388,47.1486L6.7027,47.0817L6.7191,47.0505L6.6212,46.9926L6.4966,46.9739L6.4316,46.9277L6.4639,46.8887L6.4306,46.8119L6.4519,46.7748L6.2691,46.6826L6.1101,46.5764L6.1565,46.545L6.0724,46.4625L6.0856,46.4435L6.0645,46.4159L5.8692,46.2647L5.725,46.2608L5.7135,46.3092L5.6462,46.3241L5.5954,46.2958L5.5655,46.2943L5.5386,46.2685L5.4734,46.2643L5.4566,46.2744L5.4663,46.3238L5.4366,46.3154L5.361,46.3703L5.3768,46.3823L5.2989,46.4131L5.3144,46.4463L5.2358,46.4579L5.2021,46.5086L5.1356,46.5085L5.057,46.484L4.9844,46.5147L4.9421,46.5186L4.78,46.1762L4.7259,46.1799L4.7362,46.2332L4.6796,46.2588L4.7108,46.2785L4.68,46.306L4.6374,46.3009L4.6184,46.2654L4.5836,46.2692L4.5685,46.2938L4.5387,46.2705L4.5041,46.2675L4.4588,46.2971L4.4057,46.2957L4.3879,46.2131L4.2811,46.157L4.2498,46.1585L4.2078,46.1944L4.1783,46.1738L4.133,46.1772L4.103,46.1987L4.0295,46.1693L3.9896,46.1692L3.9729,46.2026L3.8906,46.2143L3.9096,46.2464L3.8914,46.2851L3.9444,46.3005L3.9466,46.3216L3.9876,46.3147L3.9763,46.3985L3.9998,46.4618L3.953,46.4775L3.9502,46.4929L3.8693,46.488L3.8392,46.5313L3.8056,46.5187L3.7422,46.5385L3.7366,46.602L3.6977,46.6589L3.6382,46.7071L3.6247,46.7549L3.5756,46.7492L3.5967,46.7245L3.5473,46.7229L3.5605,46.6891L3.5301,46.6898L3.4861,46.6524L3.4565,46.6516L3.4522,46.69L3.4202,46.7141L3.3788,46.7129L3.3465,46.6841L3.3131,46.6896L3.3003,46.7161L3.2689,46.7171L3.1995,46.6765L3.1286,46.7275L3.0577,46.7512L3.0311,46.7949L3.0688,46.8518L3.0492,46.9076L3.0793,46.9558L3.0635,46.9749L3.0775,47.0239L3.0176,47.0644L3.0304,47.1214L2.978,47.2286L2.9814,47.2618L2.8793,47.3168L2.8675,47.3385L2.9306,47.4382L2.8481,47.5381L2.8606,47.547L2.9763,47.5694L2.9364,47.5989L2.9322,47.6266L2.9533,47.6452L2.9188,47.6686L2.9261,47.6819L2.8477,47.717L2.8517,47.7576L3.0253,47.7871L3.0131,47.8338L3.0324,47.8501L3.0127,47.8738L3.0091,47.9064L3.05,47.9112L3.1278,47.9731L3.1246,48.0302L3.0495,48.0736L3.0293,48.1336L2.9368,48.1634L2.9371,48.1838L3.0041,48.2072L3.047,48.25L3.0149,48.3054L3.0469,48.3597L3.103,48.3493L3.1401,48.373L3.2539,48.3649L3.2819,48.3819L3.3354,48.3701L3.3643,48.3727L3.3752,48.4003L3.4138,48.3905L3.4277,48.3588L3.4661,48.3766L3.5034,48.3668L3.5435,48.3198L3.5869,48.3008L3.5772,48.2842L3.6187,48.2689L3.6005,48.2327L3.6211,48.2257L3.5789,48.1847L3.6303,48.19L3.6672,48.1401L3.7484,48.1658L3.7397,48.1325L3.7913,48.1178L3.8223,48.0441L3.8719,48.0149L3.8392,48.0039L3.8518,47.983L3.9135,47.9797L3.8948,47.9293L3.9862,47.9304L4.0045,47.9426L4.0447,47.9252L4.0602,47.9458L4.0896,47.945L4.1102,47.926L4.1673,47.9596L4.2025,47.9415L4.2929,47.9251L4.3146,47.9615L4.5549,47.9682L4.5362,48.0068L4.5789,48.0294L4.6704,48.0142L4.7003,48.0242L4.7378,48.0051L4.7934,48.0062L4.8095,47.9889L4.785,47.9627L4.8459,47.9609L4.8656,47.9407L4.8318,47.9091L4.9034,47.9214L4.9408,47.8669L4.9539,47.8669L4.9926,47.8081L4.916,47.7672L4.9592,47.7621L4.969,47.686L5.0292,47.7104L5.0617,47.6951L5.1182,47.6463L5.1791,47.6801L5.1742,47.652L5.239,47.6162L5.2547,47.5763L5.3225,47.6123L5.3554,47.5909L5.4202,47.6771L5.4625,47.6722L5.4831,47.6842L5.5258,47.6733L5.5678,47.7078L5.5971,47.6725L5.691,47.6851L5.6848,47.7227L5.7091,47.7471L5.7059,47.7681L5.6763,47.7795L5.6912,47.8211L5.7418,47.8203L5.761,47.8598L5.828,47.8525L5.8481,47.9047L5.8844,47.9003L5.8841,47.9253L5.9333,47.9775L5.9715,47.9572L6.0032,47.9565L6.0403,48.0035L6.1357,48.0194L6.1649,47.9773L6.2079,47.9473L6.2877,47.9557L6.3895,47.9606L6.4357,47.9417L6.4786,47.8856L6.5438,47.9031L6.5639,47.9327L6.6074,47.945L6.6463,47.9038L6.786,47.8503L6.8233,47.8147L6.841,47.8197L6.8658,47.7824L7.0152,47.7428L7.0481,47.6819L7.0052,47.6022L7.086,47.5929L7.143,47.5247L7.1325,47.503Z" />
    <path id="FR-ARA" class="regiao" data-nome="Auvergne-Rhône-Alpes" d="M6.6304,45.1091L6.5777,45.1239L6.5414,45.0998L6.5101,45.1094L6.48,45.093L6.4863,45.0551L6.4507,45.052L6.3645,45.0702L6.3639,45.1026L6.333,45.1232L6.2937,45.1081L6.2629,45.1265L6.2303,45.1018L6.2441,45.0705L6.2196,45.0643L6.2041,45.016L6.2513,44.9963L6.3236,44.9986L6.3225,44.9537L6.358,44.9392L6.3555,44.8547L6.3359,44.8479L6.2912,44.8737L6.2471,44.8517L6.1337,44.8641L6.0562,44.8158L6.0174,44.8354L5.9492,44.8046L5.98,44.7813L5.9508,44.7602L5.8825,44.7462L5.8267,44.7592L5.7986,44.7061L5.8301,44.6901L5.7891,44.6531L5.749,44.6617L5.7287,44.6387L5.6426,44.6515L5.6475,44.6116L5.5966,44.5438L5.6635,44.5022L5.6281,44.5L5.6136,44.4714L5.4576,44.4991L5.4641,44.4477L5.419,44.4252L5.4431,44.3913L5.4303,44.3749L5.4931,44.3378L5.5212,44.3509L5.5477,44.3304L5.6292,44.3336L5.6079,44.3063L5.6366,44.3007L5.6471,44.267L5.6865,44.267L5.6863,44.1962L5.6517,44.1894L5.6825,44.1635L5.6784,44.1464L5.6311,44.1505L5.6395,44.1678L5.6017,44.1913L5.5746,44.1865L5.5828,44.1575L5.5034,44.1157L5.455,44.1193L5.4354,44.1518L5.383,44.1553L5.3848,44.2004L5.3551,44.2144L5.298,44.2072L5.2491,44.2315L5.2297,44.2115L5.1522,44.2323L5.1668,44.3153L5.1084,44.2779L5.0763,44.2843L5.0598,44.308L4.9221,44.2602L4.8798,44.2612L4.8189,44.2278L4.7885,44.3136L4.6505,44.3303L4.6493,44.2708L4.5585,44.3025L4.5488,44.3256L4.5053,44.344L4.4532,44.3387L4.438,44.2835L4.3957,44.2907L4.3921,44.3467L4.3264,44.3385L4.2879,44.3153L4.2887,44.2925L4.2573,44.2652L4.1785,44.3182L4.1429,44.3134L4.13,44.3368L4.0482,44.3192L4.0367,44.3302L4.0581,44.3638L4.0406,44.3915L4.0691,44.4055L3.9884,44.4723L3.9528,44.5708L3.9293,44.5693L3.9032,44.5943L3.8982,44.6451L3.8695,44.6783L3.8841,44.6967L3.861,44.7112L3.8756,44.7401L3.8358,44.7477L3.8095,44.7645L3.7434,44.838L3.6666,44.8287L3.6745,44.8541L3.6539,44.8759L3.5934,44.8757L3.57,44.8359L3.5057,44.8243L3.4862,44.8065L3.4167,44.8983L3.415,44.9419L3.3714,44.96L3.3709,44.9752L3.2855,44.9269L3.2232,44.9094L3.2359,44.8878L3.1916,44.8626L3.1313,44.9037L3.1032,44.8862L3.0988,44.8338L3.0723,44.8378L3.046,44.8002L3.0264,44.7284L2.9816,44.6445L2.9367,44.68L2.9371,44.7741L2.9204,44.7937L2.8882,44.7893L2.8595,44.8744L2.8048,44.8745L2.7729,44.8559L2.7744,44.9121L2.737,44.9413L2.6046,44.8457L2.6004,44.792L2.5499,44.7533L2.5601,44.72L2.4994,44.6889L2.4838,44.6507L2.3522,44.6405L2.3266,44.6704L2.2949,44.6684L2.2151,44.6492L2.2076,44.6169L2.1715,44.6369L2.1587,44.6957L2.1294,44.6966L2.1714,44.7886L2.0909,44.8733L2.0612,44.9755L2.1094,44.9813L2.1427,45.001L2.0983,45.0595L2.1428,45.086L2.1727,45.0817L2.1793,45.1367L2.232,45.1651L2.2006,45.181L2.1937,45.2213L2.2405,45.2485L2.269,45.2911L2.289,45.2882L2.316,45.3215L2.3596,45.3366L2.3685,45.3873L2.3866,45.4117L2.4803,45.37L2.5282,45.3921L2.4875,45.4192L2.5177,45.5543L2.4893,45.561L2.4613,45.5962L2.4862,45.6409L2.5218,45.6423L2.5237,45.7103L2.485,45.7489L2.4435,45.7592L2.3885,45.8255L2.4304,45.8347L2.4565,45.8664L2.4926,45.8641L2.5002,45.8867L2.5567,45.9138L2.5445,45.9324L2.5646,45.9568L2.6116,45.9721L2.5931,45.9913L2.6018,46.0351L2.5717,46.0474L2.5502,46.0862L2.5659,46.1555L2.5259,46.1874L2.4823,46.2802L2.4316,46.2961L2.3876,46.3315L2.3648,46.3104L2.3021,46.3432L2.3338,46.3722L2.2872,46.3814L2.2802,46.4197L2.2981,46.4703L2.3229,46.4704L2.3605,46.5165L2.4866,46.5324L2.5362,46.5189L2.6144,46.5532L2.6034,46.5944L2.5662,46.6086L2.5956,46.6392L2.5698,46.6589L2.624,46.6903L2.7013,46.7187L2.7333,46.7474L2.7607,46.717L2.7983,46.7348L2.8461,46.7258L2.8494,46.7457L2.9206,46.7929L2.9634,46.8043L3.0311,46.7949L3.0577,46.7512L3.1286,46.7275L3.1995,46.6765L3.2689,46.7171L3.3003,46.7161L3.3131,46.6896L3.3465,46.6841L3.3788,46.7129L3.4202,46.7141L3.4522,46.69L3.4565,46.6516L3.4861,46.6524L3.5301,46.6898L3.5605,46.6891L3.5473,46.7229L3.5967,46.7245L3.5756,46.7492L3.6247,46.7549L3.6382,46.7071L3.6977,46.6589L3.7366,46.602L3.7422,46.5385L3.8056,46.5187L3.8392,46.5313L3.8693,46.488L3.9502,46.4929L3.953,46.4775L3.9998,46.4618L3.9763,46.3985L3.9876,46.3147L3.9466,46.3216L3.9444,46.3005L3.8914,46.2851L3.9096,46.2464L3.8906,46.2143L3.9729,46.2026L3.9896,46.1692L4.0295,46.1693L4.103,46.1987L4.133,46.1772L4.1783,46.1738L4.2078,46.1944L4.2498,46.1585L4.2811,46.157L4.3879,46.2131L4.4057,46.2957L4.4588,46.2971L4.5041,46.2675L4.5387,46.2705L4.5685,46.2938L4.5836,46.2692L4.6184,46.2654L4.6374,46.3009L4.68,46.306L4.7108,46.2785L4.6796,46.2588L4.7362,46.2332L4.7259,46.1799L4.78,46.1762L4.9421,46.5186L4.9844,46.5147L5.057,46.484L5.1356,46.5085L5.2021,46.5086L5.2358,46.4579L5.3144,46.4463L5.2989,46.4131L5.3768,46.3823L5.361,46.3703L5.4366,46.3154L5.4663,46.3238L5.4566,46.2744L5.4734,46.2643L5.5386,46.2685L5.5655,46.2943L5.5954,46.2958L5.6462,46.3241L5.7135,46.3092L5.725,46.2608L5.8692,46.2647L6.0645,46.4159L6.1698,46.3667L6.102,46.2848L6.1243,46.2507L5.98,46.2163L5.9645,46.1962L5.9945,46.1811L5.9938,46.1443L6.0362,46.1345L6.0519,46.1514L6.1283,46.1393L6.2321,46.2054L6.2953,46.2247L6.3095,46.2556L6.2607,46.2509L6.2376,46.2768L6.2479,46.303L6.2205,46.3114L6.2526,46.3596L6.5193,46.4565L6.6825,46.4541L6.8205,46.4266L6.806,46.3792L6.771,46.3549L6.8649,46.2804L6.8042,46.2038L6.7973,46.1377L6.8986,46.1247L6.8732,46.0519L6.8904,46.0429L6.9369,46.0635L7.0249,45.9781L7.0441,45.9233L7.0025,45.8998L6.9963,45.8718L6.9408,45.8467L6.8201,45.8366L6.8069,45.7252L6.9151,45.6512L6.9659,45.6537L6.9997,45.6393L6.9769,45.5874L6.9954,45.5738L7,45.5044L7.0544,45.494L7.049,45.4716L7.0996,45.469L7.1143,45.4326L7.1748,45.4091L7.1629,45.3601L7.11,45.3269L7.1349,45.2554L7.0816,45.2161L7.0013,45.2195L6.9452,45.169L6.8927,45.1676L6.8925,45.1359L6.8483,45.1263L6.7671,45.1587L6.7415,45.1372L6.6796,45.1397L6.6304,45.1091Z" />
</svg>