<?xml version="1.0"?>
<svg viewBox="6.268634 -9.696774717378293 12.605732000000003 3.3521997546674096" xmlns="http://www.w3.org/2000/svg">
    <path id="FR-H" class="regiao" data-nome="Corse" d="M9.423,-8.330984206786844L9.4635,-8.32501828018424L9.493,-8.281897136622995L9.4465,-8.25000694369349L9.5202,-8.227734241943448L9.5437,-8.192082437612555L9.5322,-8.178800065238303L9.5598,-8.158002303394431L9.5492,-8.115858673934351L9.4119,-8.080614608147172L9.397,-8.062906477879089L9.4081,-8.036956750857895L9.389,-8.011308760578356L9.344,-7.988456490269703L9.2743,-7.9817870825427875L9.279,-7.9663608039260865L9.2215,-7.943576458500966L9.0939,-7.94999635386335L9.0703,-7.961680111960429L8.9205,-7.972091386998045L8.7743,-7.996108956030338L8.9133,-8.019229949399968L8.8423,-8.020608989770286L8.7748,-8.030897351057675L8.7823,-8.073458470389982L8.6418,-8.070526615344207L8.6601,-8.094537825239932L8.719,-8.106522647396424L8.6998,-8.11802302050948L8.5934,-8.125365318707054L8.5396,-8.147484671717786L8.6944,-8.15439339855885L8.6252,-8.16517553929274L8.605,-8.189718155871347L8.6547,-8.189481748434256L8.6662,-8.21323589744292L8.7272,-8.224060931209493L8.9224,-8.24260270179202L9.0602,-8.247704585912963L9.0858,-8.260407634418694L9.1672,-8.265586969812691L9.2576,-8.261096523635576L9.3446,-8.265444394935528L9.3092,-8.28853574479817L9.361,-8.3101855736421L9.3399,-8.326855526925439L9.423,-8.330984206786844Z" />
    <path id="MT" class="regiao" data-nome="Malta" d="M14.3702,-6.741913432287885L14.5711,-6.715615431334331L14.5312,-6.7013409627108835L14.4226,-6.705451992175692L14.3364,-6.716886286807501L14.3297,-6.739950458101694L14.3702,-6.741913432287885Z" />
    <path id="SM" class="regiao" data-nome="San Marino" d="M12.4102,-8.545607063903763L12.4363,-8.558402763154412L12.4926,-8.54873223751776L12.4102,-8.545607063903763Z" />
    <path id="VA" class="regiao" data-nome="Vatican City" d="M12.4577,-8.069588542986763L12.4541,-8.06822844245723L12.4466,-8.068627079813531L12.4504,-8.069752701406447L12.4577,-8.069588542986763Z" />
    <path id="IT-21" class="regiao" data-nome="Piemonte" d="M8.7167,-9.088708103614866L8.7241,-9.067655115858317L8.5671,-9.037727779577725L8.5921,-9.02080916061718L8.5504,-9.007664416435315L8.6866,-8.971349166667919L8.7173,-8.93988396802801L8.7858,-8.933708932050612L8.8437,-8.911048935545253L8.7486,-8.906103920159547L8.7138,-8.887879545015604L8.6322,-8.899844386812513L8.5257,-8.898155783874955L8.555,-8.872776676010945L8.5413,-8.85561032953783L8.7045,-8.817167179400618L8.8968,-8.82618141866861L8.9024,-8.815241594015578L8.9766,-8.805444919032047L9.0021,-8.790848860029953L9.1078,-8.76558786912402L9.2144,-8.752408959789756L9.2094,-8.73585430818274L9.2003,-8.71914727367412L9.1329,-8.709171658809563L9.0457,-8.720250657769153L9.0145,-8.731976331743063L8.9245,-8.733792467549977L8.8816,-8.723806588374615L8.9155,-8.7057663530605L8.6205,-8.71149949432285L8.5585,-8.691443579780081L8.4032,-8.692936393949894L8.3667,-8.683003552637315L8.2514,-8.697758516839109L8.1951,-8.685498345349053L8.2219,-8.674299651192507L8.1451,-8.66169329021571L8.0657,-8.62116442260869L8.095,-8.610186261334992L8.0066,-8.593941337819341L7.9364,-8.593309421699622L7.7609,-8.60313156706406L7.7114,-8.584562668303237L7.665,-8.600894250204512L7.5603,-8.606974729227426L7.3551,-8.59705271475493L7.1859,-8.617926086845802L7.0054,-8.626303433645894L6.9933,-8.637123298659692L6.8861,-8.657200686354381L6.8915,-8.67163575292616L6.8549,-8.698370577969525L6.9312,-8.708706137343183L6.9474,-8.728050344068404L7.0304,-8.746462785580595L7.0216,-8.769868729454526L6.9349,-8.779394588096334L6.8628,-8.776514002438663L6.7502,-8.790084953759012L6.7435,-8.816944983087714L6.6727,-8.818327594661122L6.6254,-8.839503383225882L6.7671,-8.852961687975931L6.8466,-8.84712158210606L6.9452,-8.855511305948239L7.0004,-8.867919426365791L7.0683,-8.865863034489712L7.1348,-8.883463565414889L7.11,-8.894655062148317L7.1871,-8.914056554971184L7.1022,-8.929303411354645L7.2212,-8.930373551857349L7.2677,-8.940656038794346L7.3777,-8.941652321978651L7.465,-8.956704815141258L7.5656,-8.960295878483617L7.7318,-8.950098666911195L7.936,-8.971598777368726L7.9329,-8.994007005470486L7.861,-9.010742931268044L7.861,-9.041866569477406L7.9056,-9.06197602371857L7.9865,-9.06157405202894L8.0306,-9.08762575015013L8.1032,-9.09057095608189L8.1644,-9.10787722859727L8.0757,-9.127981636005575L8.209,-9.140280647483602L8.2888,-9.165291209746524L8.3622,-9.17633150011466L8.4686,-9.174558381183788L8.4639,-9.146472172363229L8.4258,-9.137754290894522L8.4699,-9.120890050645443L8.5294,-9.117459128123006L8.6101,-9.09334052337722L8.7167,-9.088708103614866Z" />
    <path id="IT-23" class="regiao" data-nome="Valle d'Aosta" d="M7.861,-9.041866569477406L7.861,-9.010742931268044L7.9329,-8.994007005470486L7.936,-8.971598777368726L7.7318,-8.950098666911195L7.5656,-8.960295878483617L7.465,-8.956704815141258L7.3777,-8.941652321978651L7.2677,-8.940656038794346L7.2212,-8.930373551857349L7.1022,-8.929303411354645L7,-8.9387881986543L6.9997,-8.972422524286461L6.9151,-8.975393408580707L6.8079,-8.99343198641241L6.8201,-9.021761070770722L6.9963,-9.030581856591734L7.0426,-9.043547520321908L7.1042,-9.027148102985599L7.2564,-9.034718523032998L7.2922,-9.042995543930012L7.3842,-9.036699543792446L7.5399,-9.051804689095103L7.6623,-9.057178245177017L7.7977,-9.042117444776617L7.861,-9.041866569477406Z" />
    <path id="IT-25" class="regiao" data-nome="Lombardia" d="M10.4555,-9.196916356285854L10.6229,-9.176002189369791L10.6348,-9.163772594645039L10.5684,-9.145031447644016L10.5887,-9.124902280853961L10.5443,-9.110700678785154L10.5468,-9.09016815597953L10.4819,-9.076253556243751L10.4554,-9.056876869325617L10.5116,-9.04204218171214L10.504,-9.02013284289919L10.5682,-9.0087155402514L10.7361,-9.023589922679083L10.8458,-9.020558668747942L10.6295,-8.96421218505874L10.6516,-8.924078316208144L10.7217,-8.915597898836605L10.7025,-8.889318759159337L10.7885,-8.891477856500238L10.8486,-8.876866986292773L10.9379,-8.870893053857634L11.0748,-8.838168148533958L11.4223,-8.80458155763408L11.4267,-8.801054656741483L11.3052,-8.80418689568075L11.161,-8.799032634429768L11.0749,-8.804285560137235L10.869,-8.793559827693038L10.7496,-8.80070941297269L10.6868,-8.809811867994245L10.6311,-8.79572897551373L10.5259,-8.792253569407583L10.3602,-8.80529691047991L10.2152,-8.821290789159743L10.0966,-8.818895492159434L9.993,-8.845439288300717L9.8774,-8.842767822063651L9.8139,-8.832581313784173L9.718,-8.82815791080168L9.6365,-8.834262075841883L9.443,-8.836684702527215L9.3749,-8.825959080604694L9.3186,-8.79868743997087L9.2736,-8.788187687363738L9.3617,-8.770139401970635L9.2866,-8.756882516435901L9.3259,-8.737474535561976L9.2094,-8.73585430818274L9.2144,-8.752408959789756L9.1078,-8.76558786912402L9.0021,-8.790848860029953L8.9766,-8.805444919032047L8.9024,-8.815241594015578L8.8968,-8.82618141866861L8.7045,-8.817167179400618L8.5413,-8.85561032953783L8.555,-8.872776676010945L8.5257,-8.898155783874955L8.6322,-8.899844386812513L8.7138,-8.887879545015604L8.7486,-8.906103920159547L8.8437,-8.911048935545253L8.7858,-8.933708932050612L8.7173,-8.93988396802801L8.6866,-8.971349166667919L8.5504,-9.007664416435315L8.5921,-9.02080916061718L8.5671,-9.037727779577725L8.7241,-9.067655115858317L8.7167,-9.088708103614866L8.8509,-9.081410144783234L8.8297,-9.059840682234995L8.8959,-9.046031685002195L8.9552,-9.023364434817871L9.0349,-9.017002169805878L9.0748,-9.037276349639786L9.0186,-9.044576262008796L9.0045,-9.071727397958842L9.0742,-9.079020268118319L9.0704,-9.092836924563663L9.1798,-9.105507991060907L9.2968,-9.145132546234953L9.2735,-9.156257908012696L9.276,-9.188166572297135L9.3618,-9.191539019547887L9.4618,-9.15759861305111L9.5183,-9.145157820998197L9.6323,-9.134925319194323L9.7092,-9.136466026684726L9.907,-9.158888848303214L9.9969,-9.151528534915435L9.9998,-9.13444546174013L10.1233,-9.119376303582243L10.1771,-9.12745153425856L10.1059,-9.146598558887659L10.1671,-9.166151832449852L10.0406,-9.175115622581762L10.0451,-9.19919982258614L10.1896,-9.221242043896634L10.2597,-9.217201714326237L10.2968,-9.201864345050637L10.4555,-9.196916356285854Z" />
    <path id="IT-32" class="regiao" data-nome="Trentino-Alto Adige" d="M12.4789,-9.234438555329557L12.3786,-9.219488547605632L12.1904,-9.220377974315463L12.0732,-9.225258138373425L11.9989,-9.197626727469967L11.8164,-9.188724363769488L11.8856,-9.176914146072264L11.8197,-9.157674505906602L11.8441,-9.13078393971201L11.9309,-9.125255614687257L11.8961,-9.09349160658606L11.69,-9.086316970337524L11.708,-9.0741663111362L11.6724,-9.053737925799277L11.5903,-9.054767421206563L11.501,-9.065393252454946L11.377,-9.058434048197812L11.3459,-9.042895186937569L11.2562,-9.042719563941748L11.2393,-9.025970294835181L11.175,-9.008740567974087L11.1288,-8.984934464650676L11.06,-8.9919320481153L10.9447,-8.981661798084037L10.8456,-8.992207024745362L10.898,-9.014898752289383L10.8458,-9.020558668747942L10.7361,-9.023589922679083L10.5682,-9.0087155402514L10.504,-9.02013284289919L10.5116,-9.04204218171214L10.4554,-9.056876869325617L10.4819,-9.076253556243751L10.5468,-9.09016815597953L10.5443,-9.110700678785154L10.5887,-9.124902280853961L10.5684,-9.145031447644016L10.6348,-9.163772594645039L10.6229,-9.176002189369791L10.4555,-9.196916356285854L10.4924,-9.217277935979336L10.4033,-9.223300781295888L10.4023,-9.248284350337958L10.445,-9.254218898368205L10.4779,-9.279871387272278L10.547,-9.274461503126057L10.6659,-9.284159982400112L10.7867,-9.263903068220324L10.8854,-9.255441784935392L11.0201,-9.256511900057706L11.1137,-9.29823498376066L11.3199,-9.31408987701899L11.4041,-9.3070551972305L11.4795,-9.319054701532792L11.5366,-9.311812802826093L11.6186,-9.319438654815741L11.7098,-9.314038702647924L11.836,-9.31429457641829L11.9146,-9.324866348227285L12.1816,-9.340008717378293L12.2034,-9.32363724773508L12.1198,-9.318261232251155L12.2145,-9.284134451076808L12.3065,-9.275380012218761L12.3806,-9.244388809874794L12.4789,-9.234438555329557Z" />
    <path id="IT-34" class="regiao" data-nome="Veneto" d="M12.7293,-9.223122853554589L12.7309,-9.20353945158957L12.5297,-9.179954437191938L12.4953,-9.167012508802785L12.3547,-9.143085443836302L12.3203,-9.129849775429623L12.443,-9.115088251810402L12.4961,-9.101173838511134L12.4873,-9.088959825821783L12.3962,-9.072657654535174L12.4285,-9.049193990583188L12.5057,-9.043873698478555L12.5532,-9.01998255452842L12.6538,-9.014798597463363L12.782,-9.026396299057996L12.9595,-9.018179220428319L13.0623,-8.976691808298122L13.1,-8.972946752130651L12.9095,-8.966981700208635L12.7688,-8.949226389655841L12.3959,-8.920048857407165L12.3303,-8.901657377523827L12.2928,-8.8730988997697L12.3345,-8.854422092356128L12.3289,-8.836313865377832L12.4976,-8.804088231912141L12.4847,-8.788803655091437L12.4022,-8.787571746415098L12.3514,-8.769794910573694L12.282,-8.792105698702114L12.1419,-8.796468533677434L12.0972,-8.806999102307277L11.9665,-8.810650871306173L11.8012,-8.808257375723318L11.6284,-8.786487755375807L11.541,-8.797257438297347L11.4267,-8.801054656741483L11.4223,-8.80458155763408L11.0748,-8.838168148533958L10.9379,-8.870893053857634L10.8486,-8.876866986292773L10.7885,-8.891477856500238L10.7025,-8.889318759159337L10.7217,-8.915597898836605L10.6516,-8.924078316208144L10.6295,-8.96421218505874L10.8458,-9.020558668747942L10.898,-9.014898752289383L10.8456,-8.992207024745362L10.9447,-8.981661798084037L11.06,-8.9919320481153L11.1288,-8.984934464650676L11.175,-9.008740567974087L11.2393,-9.025970294835181L11.2562,-9.042719563941748L11.3459,-9.042895186937569L11.377,-9.058434048197812L11.501,-9.065393252454946L11.5903,-9.054767421206563L11.6724,-9.053737925799277L11.708,-9.0741663111362L11.69,-9.086316970337524L11.8961,-9.09349160658606L11.9309,-9.125255614687257L11.8441,-9.13078393971201L11.8197,-9.157674505906602L11.8856,-9.176914146072264L11.8164,-9.188724363769488L11.9989,-9.197626727469967L12.0732,-9.225258138373425L12.1904,-9.220377974315463L12.3786,-9.219488547605632L12.4789,-9.234438555329557L12.5636,-9.227470032903987L12.6717,-9.229377124126863L12.7293,-9.223122853554589Z" />
    <path id="IT-36" class="regiao" data-nome="Friuli-Venezia Giulia" d="M13.1,-8.972946752130651L13.0623,-8.976691808298122L12.9595,-9.018179220428319L12.782,-9.026396299057996L12.6538,-9.014798597463363L12.5532,-9.01998255452842L12.5057,-9.043873698478555L12.4285,-9.049193990583188L12.3962,-9.072657654535174L12.4873,-9.088959825821783L12.4961,-9.101173838511134L12.443,-9.115088251810402L12.3203,-9.129849775429623L12.3547,-9.143085443836302L12.4953,-9.167012508802785L12.5297,-9.179954437191938L12.7309,-9.20353945158957L12.7293,-9.223122853554589L13.1666,-9.210851392803402L13.238,-9.201432911206728L13.4248,-9.202828775449834L13.7145,-9.193567956738814L13.6852,-9.172734839377677L13.5912,-9.17243093916874L13.3735,-9.13684491546891L13.4217,-9.121243282103746L13.5273,-9.117333007461836L13.6407,-9.096639547723225L13.4975,-9.076681102981398L13.4727,-9.063408142328571L13.6349,-9.046508494597774L13.5737,-9.025794885116632L13.7933,-8.999133221599754L13.8635,-8.977665687212404L13.918,-8.970725159402255L13.7955,-8.957677303850609L13.7499,-8.982685985389704L13.63,-9.00521210207495L13.5522,-8.99358198910173L13.3824,-8.981162221750846L13.2823,-8.990582241345422L13.1562,-8.988032962120265L13.1,-8.972946752130651Z" />
    <path id="IT-42" class="regiao" data-nome="Liguria" d="M7.7114,-8.584562668303237L7.7609,-8.60313156706406L7.9364,-8.593309421699622L8.0066,-8.593941337819341L8.095,-8.610186261334992L8.0657,-8.62116442260869L8.1451,-8.66169329021571L8.2219,-8.674299651192507L8.1951,-8.685498345349053L8.2514,-8.697758516839109L8.3667,-8.683003552637315L8.4032,-8.692936393949894L8.5585,-8.691443579780081L8.6205,-8.71149949432285L8.9155,-8.7057663530605L8.8816,-8.723806588374615L8.9245,-8.733792467549977L9.0145,-8.731976331743063L9.0457,-8.720250657769153L9.1329,-8.709171658809563L9.2003,-8.71914727367412L9.2988,-8.717994941571067L9.3602,-8.709269665266879L9.4862,-8.705668370694648L9.5029,-8.698517476550093L9.4378,-8.670731606792245L9.5821,-8.673126497167587L9.6829,-8.657200686354381L9.8593,-8.625986758856243L10.0672,-8.593358029645309L10.0185,-8.579948470661126L9.9644,-8.57788470349641L9.8815,-8.588595232220742L9.8324,-8.580822626021465L9.7025,-8.599848667273463L9.5668,-8.613276822984643L9.4895,-8.626644475858685L9.4031,-8.630274642260606L9.3714,-8.639805159377701L9.2342,-8.653319626948319L8.7516,-8.672246694868921L8.5012,-8.647731774504969L8.4411,-8.63536817079029L8.4261,-8.616246336000303L8.2701,-8.602572205169466L8.1749,-8.557820893930295L7.9464,-8.531177061262618L7.8015,-8.52553972196943L7.6714,-8.514416666216015L7.5358,-8.515359375788968L7.4938,-8.533016326226509L7.5653,-8.554887661082986L7.6506,-8.562719026952387L7.7114,-8.584562668303237Z" />
    <path id="IT-45" class="regiao" data-nome="Emilia-Romagna" d="M12.7506,-8.561506462668442L12.7322,-8.536865020393574L12.6724,-8.526313818466681L12.59,-8.54076317202806L12.4926,-8.54873223751776L12.4363,-8.558402763154412L12.4102,-8.545607063903763L12.3561,-8.538511316214262L12.2818,-8.51209641223777L12.281,-8.512193082052061L12.0735,-8.506321563503963L11.9846,-8.51141974163606L11.9122,-8.523338611779241L11.8212,-8.524040028063066L11.7123,-8.539092406648244L11.7176,-8.549556039495819L11.6461,-8.566405849443544L11.7408,-8.590223153797574L11.6408,-8.595642788595487L11.6135,-8.607607246908213L11.5192,-8.606877421288669L11.4257,-8.626352153465236L11.2807,-8.606585501429961L11.2133,-8.592847654416037L11.0879,-8.590927833748127L11.0039,-8.595958794496736L10.9133,-8.583955452442344L10.7522,-8.606804440767462L10.6436,-8.60724232946023L10.5929,-8.597004094307954L10.4648,-8.625182923499192L10.3007,-8.638878641623482L10.2542,-8.634807550259994L10.1444,-8.655150184142823L10.0967,-8.653392844738871L9.9913,-8.667775203982991L9.924,-8.684666699328593L9.8197,-8.682661164135682L9.7531,-8.664330910943184L9.6829,-8.657200686354381L9.5821,-8.673126497167587L9.4378,-8.670731606792245L9.5029,-8.698517476550093L9.4862,-8.705668370694648L9.3602,-8.709269665266879L9.2988,-8.717994941571067L9.2003,-8.71914727367412L9.2094,-8.73585430818274L9.3259,-8.737474535561976L9.2866,-8.756882516435901L9.3617,-8.770139401970635L9.2736,-8.788187687363738L9.3186,-8.79868743997087L9.3749,-8.825959080604694L9.443,-8.836684702527215L9.6365,-8.834262075841883L9.718,-8.82815791080168L9.8139,-8.832581313784173L9.8774,-8.842767822063651L9.993,-8.845439288300717L10.0966,-8.818895492159434L10.2152,-8.821290789159743L10.3602,-8.80529691047991L10.5259,-8.792253569407583L10.6311,-8.79572897551373L10.6868,-8.809811867994245L10.7496,-8.80070941297269L10.869,-8.793559827693038L11.0749,-8.804285560137235L11.161,-8.799032634429768L11.3052,-8.80418689568075L11.4267,-8.801054656741483L11.541,-8.797257438297347L11.6284,-8.786487755375807L11.8012,-8.808257375723318L11.9665,-8.810650871306173L12.0972,-8.806999102307277L12.1419,-8.796468533677434L12.282,-8.792105698702114L12.3514,-8.769794910573694L12.2922,-8.776735565174372L12.2508,-8.75572712232588L12.2486,-8.727437006342093L12.2868,-8.714342419902447L12.2847,-8.684153059816037L12.3633,-8.63190729872041L12.3976,-8.61984952141879L12.5284,-8.593139295184542L12.694,-8.565387027795905L12.7506,-8.561506462668442Z" />
    <path id="IT-52" class="regiao" data-nome="Toscana" d="M9.6829,-8.657200686354381L9.7531,-8.664330910943184L9.8197,-8.682661164135682L9.924,-8.684666699328593L9.9913,-8.667775203982991L10.0967,-8.653392844738871L10.1444,-8.655150184142823L10.2542,-8.634807550259994L10.3007,-8.638878641623482L10.4648,-8.625182923499192L10.5929,-8.597004094307954L10.6436,-8.60724232946023L10.7522,-8.606804440767462L10.9133,-8.583955452442344L11.0039,-8.595958794496736L11.0879,-8.590927833748127L11.2133,-8.592847654416037L11.2807,-8.606585501429961L11.4257,-8.626352153465236L11.5192,-8.606877421288669L11.6135,-8.607607246908213L11.6408,-8.595642788595487L11.7408,-8.590223153797574L11.6461,-8.566405849443544L11.7176,-8.549556039495819L11.7123,-8.539092406648244L11.8212,-8.524040028063066L11.9122,-8.523338611779241L11.9846,-8.51141974163606L12.0735,-8.506321563503963L12.281,-8.512193082052061L12.2843,-8.511758072978044L12.33,-8.498255133284584L12.2307,-8.485440205825473L12.2138,-8.474998753696841L12.1504,-8.455462336003784L12.1443,-8.443094037103213L12.0599,-8.433476180030157L12.1372,-8.407731630250728L12.0942,-8.384954916619122L11.9246,-8.363625004657806L11.9821,-8.340176485229247L11.8962,-8.289511563389926L11.8479,-8.289987595953592L11.7466,-8.277235245179323L11.8203,-8.267131619412476L11.7841,-8.250149369375992L11.6759,-8.228397905109308L11.5608,-8.21297543624513L11.6169,-8.19473088094998L11.4842,-8.194470745019864L11.448,-8.180288422665516L11.2086,-8.187732450546259L11.1872,-8.176863061690522L11.0935,-8.183927258421631L11.1643,-8.194659934334364L11.1901,-8.212359818910137L11.1219,-8.22332637857664L11.0853,-8.240159167928297L11.0045,-8.246209432536036L10.9433,-8.26675138294847L10.7908,-8.274191541318938L10.7666,-8.284966228316943L10.7738,-8.306872917034093L10.6206,-8.317600052930219L10.4952,-8.312259343343424L10.5385,-8.349685219737692L10.5256,-8.38768624541251L10.4249,-8.4239607626599L10.3302,-8.441867406332781L10.2685,-8.491110196612015L10.2753,-8.507819419904195L10.2394,-8.537639724440915L10.1411,-8.563931693333384L10.0185,-8.579948470661126L10.0672,-8.593358029645309L9.8593,-8.625986758856243L9.6829,-8.657200686354381Z M10.4192,-8.296963240192332L10.4363,-8.275784651581777L10.3033,-8.271172238030239L10.2393,-8.263258419531544L10.1225,-8.266893970472559L10.1043,-8.278257880658686L10.2751,-8.285204169139464L10.3561,-8.280636377461L10.4192,-8.296963240192332Z" />
    <path id="IT-55" class="regiao" data-nome="Umbria" d="M12.2138,-8.474998753696841L12.3354,-8.474950542728436L12.4211,-8.457412387000826L12.4982,-8.453440337492486L12.6222,-8.428549492594739L12.7073,-8.430183525932302L12.7939,-8.409003379584405L12.8848,-8.356115477097973L12.8963,-8.31957947015072L13.053,-8.309494382155606L13.1605,-8.288178754170755L13.2597,-8.2779249217731L13.192,-8.264565213673444L13.1774,-8.24934230868669L13.0642,-8.238617340089098L12.8807,-8.233281486310872L12.8928,-8.224582248767243L12.7727,-8.212549236900905L12.6813,-8.195842422274186L12.5284,-8.177004785084826L12.5124,-8.186172440035664L12.4157,-8.191940570073758L12.2753,-8.211365414232867L12.2305,-8.241155511546578L12.1662,-8.250529177917915L12.0322,-8.243812756632597L11.9263,-8.259766283740147L11.8962,-8.289511563389926L11.9821,-8.340176485229247L11.9246,-8.363625004657806L12.0942,-8.384954916619122L12.1372,-8.407731630250728L12.0599,-8.433476180030157L12.1443,-8.443094037103213L12.1504,-8.455462336003784L12.2138,-8.474998753696841Z" />
    <path id="IT-57" class="regiao" data-nome="Marche" d="M13.915,-8.303179828302854L13.7089,-8.292772695228127L13.6999,-8.285227963433357L13.5752,-8.280850461026835L13.4979,-8.266204810221737L13.3597,-8.25544383278097L13.2879,-8.266228573831754L13.192,-8.264565213673444L13.2597,-8.2779249217731L13.1605,-8.288178754170755L13.053,-8.309494382155606L12.8963,-8.31957947015072L12.8848,-8.356115477097973L12.7939,-8.409003379584405L12.7073,-8.430183525932302L12.6222,-8.428549492594739L12.4982,-8.453440337492486L12.4211,-8.457412387000826L12.3354,-8.474950542728436L12.2138,-8.474998753696841L12.2307,-8.485440205825473L12.33,-8.498255133284584L12.2843,-8.511758072978044L12.2818,-8.51209641223777L12.3561,-8.538511316214262L12.4102,-8.545607063903763L12.4926,-8.54873223751776L12.59,-8.54076317202806L12.6724,-8.526313818466681L12.7322,-8.536865020393574L12.7506,-8.561506462668442L12.9052,-8.550767598516176L13.3049,-8.489372772066455L13.4523,-8.474998753696841L13.5494,-8.473407876379351L13.6266,-8.459964701351014L13.6224,-8.449204681856724L13.842,-8.353844245634473L13.915,-8.303179828302854Z" />
    <path id="IT-62" class="regiao" data-nome="Lazio" d="M13.9779,-7.966081318912489L13.9038,-7.9567448335434054L13.8718,-7.942762535936288L13.892,-7.927492161480915L13.7629,-7.910218242252319L13.6294,-7.918992048534095L13.5518,-7.906065219855144L13.3773,-7.923868579634923L13.2927,-7.927422469042852L13.1585,-7.921244346534974L13.0468,-7.911146447328548L12.9897,-7.934160887610425L12.848,-7.954254526554648L12.7663,-7.953253864525607L12.6722,-7.964288079796239L12.6193,-7.962192355825376L12.5546,-7.9822067485054635L12.4164,-8.011075160519109L12.3447,-8.021731014248912L12.2235,-8.031411954104467L12.2053,-8.0515889365647L12.1443,-8.071253661852232L11.9179,-8.100106046354128L11.8346,-8.097967791912994L11.6542,-8.156799237766148L11.548,-8.171927207796694L11.448,-8.180288422665516L11.4842,-8.194470745019864L11.6169,-8.19473088094998L11.5608,-8.21297543624513L11.6759,-8.228397905109308L11.7841,-8.250149369375992L11.8203,-8.267131619412476L11.7466,-8.277235245179323L11.8479,-8.289987595953592L11.8962,-8.289511563389926L11.9263,-8.259766283740147L12.0322,-8.243812756632597L12.1662,-8.250529177917915L12.2305,-8.241155511546578L12.2753,-8.211365414232867L12.4157,-8.191940570073758L12.5124,-8.186172440035664L12.5284,-8.177004785084826L12.6813,-8.195842422274186L12.7727,-8.212549236900905L12.8928,-8.224582248767243L12.8807,-8.233281486310872L13.0642,-8.238617340089098L13.1774,-8.24934230868669L13.192,-8.264565213673444L13.2879,-8.266228573831754L13.3597,-8.25544383278097L13.4105,-8.242863685623025L13.3693,-8.227118009971253L13.1928,-8.229962371926051L13.1793,-8.204075153768308L13.1173,-8.195795120944858L13.1952,-8.183029280928976L13.2402,-8.15536040477896L13.3379,-8.143831181779811L13.306,-8.121929049508582L13.2488,-8.121411324187664L13.1208,-8.133488419820205L13.0304,-8.119999437412922L13.0548,-8.095500955540485L13.1413,-8.095101601295799L13.386,-8.069025727783123L13.361,-8.061195410831063L13.5062,-8.04468076671249L13.5494,-8.035318834100648L13.6491,-8.047092410285874L13.7646,-8.032558178807621L13.8956,-8.029236706927417L13.9443,-8.018061370129553L13.9831,-8.012196473884057L14.0288,-7.9804582173564L13.9779,-7.966081318912489Z M12.4577,-8.069588542986763L12.4504,-8.069752701406447L12.4466,-8.068627079813531L12.4541,-8.06822844245723L12.4577,-8.069588542986763Z" />
    <path id="IT-65" class="regiao" data-nome="Abruzzo" d="M14.7853,-8.107862725392092L14.7803,-8.098672677135884L14.68,-8.082280954439954L14.5845,-8.05327548159007L14.4916,-8.035739995629466L14.4463,-8.053861131878435L14.2841,-8.070620425812816L14.1479,-8.051307864169846L14.1938,-8.032628358672234L14.0701,-8.02984480882545L14.0216,-8.01649561627509L13.9443,-8.018061370129553L13.8956,-8.029236706927417L13.7646,-8.032558178807621L13.6491,-8.047092410285874L13.5494,-8.035318834100648L13.5062,-8.04468076671249L13.361,-8.061195410831063L13.386,-8.069025727783123L13.1413,-8.095101601295799L13.0548,-8.095500955540485L13.0304,-8.119999437412922L13.1208,-8.133488419820205L13.2488,-8.121411324187664L13.306,-8.121929049508582L13.3379,-8.143831181779811L13.2402,-8.15536040477896L13.1952,-8.183029280928976L13.1173,-8.195795120944858L13.1793,-8.204075153768308L13.1928,-8.229962371926051L13.3693,-8.227118009971253L13.4105,-8.242863685623025L13.3597,-8.25544383278097L13.4979,-8.266204810221737L13.5752,-8.280850461026835L13.6999,-8.285227963433357L13.7089,-8.292772695228127L13.915,-8.303179828302854L13.9905,-8.261856714617839L14.1128,-8.223658107504711L14.2494,-8.197308838382458L14.4102,-8.176296181646542L14.5052,-8.15165781914829L14.6137,-8.139024084306973L14.7143,-8.13275833683463L14.7185,-8.116188010760858L14.7853,-8.107862725392092Z" />
    <path id="IT-67" class="regiao" data-nome="Molise" d="M15.1367,-8.074467161293974L15.0993,-8.052806977830555L15.1209,-8.026290100199098L15.1039,-8.014789831208338L15.0217,-8.003251653280117L14.9585,-8.008365664838399L14.938,-7.981367428256819L15.0073,-7.971229331045771L14.8668,-7.957862113929101L14.7885,-7.963682618561842L14.7549,-7.953789094116376L14.5101,-7.947669990056221L14.4794,-7.956209499292875L14.3232,-7.964194930334393L14.2399,-7.974304999415177L14.1204,-7.976332487220996L14.0423,-7.949880027174098L13.9779,-7.966081318912489L14.0288,-7.9804582173564L13.9831,-8.012196473884057L13.9443,-8.018061370129553L14.0216,-8.01649561627509L14.0701,-8.02984480882545L14.1938,-8.032628358672234L14.1479,-8.051307864169846L14.2841,-8.070620425812816L14.4463,-8.053861131878435L14.4916,-8.035739995629466L14.5845,-8.05327548159007L14.68,-8.082280954439954L14.7803,-8.098672677135884L14.7853,-8.107862725392092L14.9002,-8.096652095154903L14.9976,-8.093480802468108L15.0751,-8.078643395885711L15.1367,-8.074467161293974Z" />
    <path id="IT-72" class="regiao" data-nome="Campania" d="M13.9779,-7.966081318912489L14.0423,-7.949880027174098L14.1204,-7.976332487220996L14.2399,-7.974304999415177L14.3232,-7.964194930334393L14.4794,-7.956209499292875L14.5101,-7.947669990056221L14.7549,-7.953789094116376L14.7885,-7.963682618561842L14.8668,-7.957862113929101L15.0073,-7.971229331045771L15.0984,-7.958816523003833L15.0715,-7.935741364575438L15.2004,-7.925169252922169L15.2621,-7.904696595501339L15.2067,-7.893798397423396L15.2907,-7.879781360658003L15.4005,-7.883209128174834L15.5424,-7.871377333994437L15.5692,-7.857820282556749L15.5251,-7.837761315670186L15.4594,-7.828180216434038L15.3773,-7.8278571033656865L15.3827,-7.794820220220523L15.4984,-7.781676011937364L15.4507,-7.768543052655246L15.522,-7.756753655743553L15.586,-7.730335027193956L15.6983,-7.7169020885876165L15.734,-7.6984909140259985L15.7911,-7.695584686378939L15.7958,-7.679735905401039L15.7281,-7.674707937548801L15.7055,-7.655684988954217L15.6432,-7.639124561267234L15.6265,-7.645828722943754L15.5023,-7.643912952986217L15.4196,-7.627273935003272L15.3535,-7.629233223198381L15.2703,-7.646125232264226L15.1279,-7.668105494712653L15.0367,-7.667899927457071L14.9851,-7.679187320493101L14.9133,-7.683073549056159L14.9417,-7.705518462149551L14.9929,-7.7206832177028595L14.8749,-7.763600976590391L14.771,-7.782734497841092L14.6912,-7.7740156705522L14.626,-7.777327781521248L14.5732,-7.769140806813023L14.4799,-7.77229089566016L14.3226,-7.759051074479607L14.3379,-7.7730727696083965L14.4778,-7.788649556694338L14.2734,-7.822434439010339L14.1583,-7.816045085919515L14.044,-7.825503200019215L14.0222,-7.838939166745712L13.9221,-7.86281601727711L13.8947,-7.879341365356536L13.7629,-7.910218242252319L13.892,-7.927492161480915L13.8718,-7.942762535936288L13.9038,-7.9567448335434054L13.9779,-7.966081318912489Z M13.8687,-7.8031591671328915L13.9547,-7.799058233825713L13.9515,-7.789340179190543L13.8519,-7.790767564252027L13.8687,-7.8031591671328915Z" />
    <path id="IT-75" class="regiao" data-nome="Puglia" d="M16.8596,-7.716512570344982L16.8032,-7.7334083675800365L16.7187,-7.7388226070962585L16.7046,-7.755145666808162L16.7212,-7.792540469417216L16.5749,-7.803689143114977L16.4987,-7.803366546854964L16.4307,-7.789570393600966L16.2577,-7.817613344210753L16.2003,-7.839701354096732L16.0886,-7.840394284708375L15.9795,-7.848527021384103L16.0386,-7.867327462797511L15.9496,-7.883579743906354L15.8707,-7.890252372094229L15.7682,-7.877905679708894L15.5622,-7.8798045186579255L15.5424,-7.871377333994437L15.4005,-7.883209128174834L15.2907,-7.879781360658003L15.2067,-7.893798397423396L15.2621,-7.904696595501339L15.2004,-7.925169252922169L15.0715,-7.935741364575438L15.0984,-7.958816523003833L15.0073,-7.971229331045771L14.938,-7.981367428256819L14.9585,-8.008365664838399L15.0217,-8.003251653280117L15.1039,-8.014789831208338L15.1209,-8.026290100199098L15.0993,-8.052806977830555L15.1367,-8.074467161293974L15.3401,-8.072285659462118L15.4268,-8.06839258596571L15.6204,-8.074701750317661L15.7667,-8.072191838557561L16.0166,-8.079722837093271L16.0916,-8.077165157116283L16.1874,-8.064383309309921L16.1896,-8.038758665712953L16.0652,-8.019603913949336L15.9015,-8.001664094418418L15.9044,-7.98223006362356L15.9532,-7.9660580287281455L16.0206,-7.957489677956639L16.2034,-7.942646264857869L16.2615,-7.934648958480038L16.4196,-7.924216963320693L16.5841,-7.906830775424302L16.7778,-7.896046959782811L16.9587,-7.881147742969433L17.0924,-7.873506841207092L17.2805,-7.8519246466907L17.3513,-7.836768296136079L17.4793,-7.818997235055897L17.7097,-7.802813540502252L17.8306,-7.7881201005084115L17.9401,-7.785841345548805L18.0224,-7.776177662014549L18.0359,-7.758890243995195L18.1261,-7.741989442610924L18.2407,-7.730770762056613L18.4237,-7.696385560732727L18.5176,-7.652512961309381L18.4356,-7.634292061669187L18.3904,-7.6078993756647275L18.3909,-7.587389963764496L18.3456,-7.580960742108484L18.2708,-7.591071487074933L18.1714,-7.594731145289911L18.0459,-7.6126098887165705L18.0164,-7.6305319571719865L18.0098,-7.653402889257003L17.9199,-7.672994230526427L17.9065,-7.687029359909918L17.8573,-7.694166096471369L17.6804,-7.698696887896239L17.5092,-7.696362678032692L17.2258,-7.722333455373665L17.2252,-7.738891444423536L17.1135,-7.747751081668603L17.039,-7.745799687525311L16.9011,-7.7285004891749L16.8596,-7.716512570344982Z" />
    <path id="IT-77" class="regiao" data-nome="Basilicata" d="M15.5424,-7.871377333994437L15.5622,-7.8798045186579255L15.7682,-7.877905679708894L15.8707,-7.890252372094229L15.9496,-7.883579743906354L16.0386,-7.867327462797511L15.9795,-7.848527021384103L16.0886,-7.840394284708375L16.2003,-7.839701354096732L16.2577,-7.817613344210753L16.4307,-7.789570393600966L16.4987,-7.803366546854964L16.5749,-7.803689143114977L16.7212,-7.792540469417216L16.7046,-7.755145666808162L16.7187,-7.7388226070962585L16.8032,-7.7334083675800365L16.8596,-7.716512570344982L16.7826,-7.69720936048845L16.6889,-7.661802671631596L16.6442,-7.6560958025379975L16.4078,-7.657031585188757L16.3971,-7.632879067297262L16.3376,-7.614294185824524L16.2698,-7.614658382115874L16.0442,-7.606193019327129L16.0287,-7.627365059215983L15.8191,-7.629529416139286L15.7546,-7.611995393214391L15.6432,-7.639124561267234L15.7055,-7.655684988954217L15.7281,-7.674707937548801L15.7958,-7.679735905401039L15.7911,-7.695584686378939L15.734,-7.6984909140259985L15.6983,-7.7169020885876165L15.586,-7.730335027193956L15.522,-7.756753655743553L15.4507,-7.768543052655246L15.4984,-7.781676011937364L15.3827,-7.794820220220523L15.3773,-7.8278571033656865L15.4594,-7.828180216434038L15.5251,-7.837761315670186L15.5692,-7.857820282556749L15.5424,-7.871377333994437Z" />
    <path id="IT-78" class="regiao" data-nome="Calabria" d="M15.7546,-7.611995393214391L15.8191,-7.629529416139286L16.0287,-7.627365059215983L16.0442,-7.606193019327129L16.2698,-7.614658382115874L16.3376,-7.614294185824524L16.3971,-7.632879067297262L16.4078,-7.657031585188757L16.6442,-7.6560958025379975L16.6003,-7.638759791901837L16.6268,-7.618983864182624L16.4882,-7.583232249598732L16.5281,-7.565296329876752L16.5173,-7.55345627220242L16.6164,-7.543165868732288L16.7733,-7.542758018353586L16.8654,-7.524528873710372L17.0244,-7.511679289932459L17.0815,-7.4976201230374615L17.158,-7.493011810769748L17.1072,-7.460295399059794L17.1496,-7.449435004855502L17.1114,-7.42706176403916L17.1697,-7.392259215769408L17.0952,-7.378574771510078L16.9796,-7.388893097386067L16.7767,-7.379090529020851L16.606,-7.36055616490273L16.5347,-7.3381733160006L16.5571,-7.331196278226427L16.5826,-7.284492668396152L16.5737,-7.274842950738445L16.4635,-7.254737537895666L16.3222,-7.244282842925007L16.1661,-7.209697149003479L16.1464,-7.186503741712565L16.064,-7.162812411813495L15.9202,-7.164184238557362L15.7604,-7.16155131829781L15.6776,-7.169805511145416L15.6352,-7.183712126282979L15.6558,-7.210429412570106L15.6348,-7.231235099816423L15.8018,-7.242170482710169L15.8352,-7.260457122131957L15.9161,-7.284604130835696L15.9307,-7.30124299799526L15.8269,-7.31751937865289L15.8715,-7.329631335025983L15.9877,-7.340656265649153L16.1025,-7.338195683195199L16.1833,-7.346406557717684L16.2219,-7.36855445036282L16.2163,-7.386043673752703L16.156,-7.391159538765395L16.097,-7.410223893302562L16.0654,-7.435093587125186L16.0501,-7.470847492307868L15.9964,-7.501845594246815L15.9251,-7.521338119847449L15.8736,-7.527810821522861L15.8145,-7.5554970228682965L15.7908,-7.597914154499769L15.7546,-7.611995393214391Z" />
    <path id="IT-82" class="regiao" data-nome="Sicilia" d="M11.9559,-6.9246669241589744L12.0524,-6.916011507596696L11.9905,-6.902720990296569L11.9258,-6.916643615286571L11.9559,-6.9246669241589744Z M15.5587,-7.24632876059156L15.6059,-7.240792038790406L15.5774,-7.222372202384681L15.497,-7.196411205389019L15.3067,-7.152903292165233L15.2133,-7.125706314736702L15.2201,-7.115996201073168L15.1762,-7.09840028341794L15.1775,-7.086349834498344L15.0865,-7.066454035125616L15.0979,-7.0302017595032815L15.2057,-7.024123582974667L15.1861,-7.001147671243269L15.2338,-6.985556270030791L15.2956,-6.983061256462111L15.3005,-6.963223939158199L15.1524,-6.940965251168301L15.0947,-6.916011507596696L15.1397,-6.8910950080631235L15.0803,-6.8831095465210845L15.0178,-6.894708212131656L14.9576,-6.892814447655665L14.8774,-6.901022309052891L14.7808,-6.895187129055458L14.6899,-6.898822990984296L14.6375,-6.907534858112828L14.4932,-6.913112837474925L14.3799,-6.95124991177956L14.2625,-6.97210077680908L14.0695,-6.983849114907494L13.8749,-6.982032719847222L13.8223,-6.991445116227947L13.7502,-6.992561825059131L13.66,-7.002330764524571L13.5542,-7.022127269747143L13.4492,-7.023991950491435L13.4022,-7.032594147103236L13.272,-7.045198323703362L13.1649,-7.068081767939699L13.0192,-7.068323741990694L12.9615,-7.083553282090744L12.7788,-7.0870985987524655L12.674,-7.082562492090352L12.6072,-7.100339757599649L12.5197,-7.104550088762897L12.4249,-7.135753530352689L12.4852,-7.151952510742955L12.4574,-7.15931698906056L12.4937,-7.176115159172741L12.5704,-7.195080992844956L12.6033,-7.194039069221691L12.7687,-7.2133587980449265L12.811,-7.197386763944072L12.9,-7.185307276317985L13.077,-7.1992715319409815L13.052,-7.210540364484077L13.1077,-7.222616477804853L13.1908,-7.217465268503247L13.3172,-7.229635420615452L13.3665,-7.2200628716253075L13.3825,-7.2037736882651595L13.4467,-7.20064644211472L13.5369,-7.2048827857659L13.5677,-7.188542367385668L13.7128,-7.174786608645677L13.8632,-7.177886728868441L14.0228,-7.189207191997777L14.2864,-7.181696258054372L14.4786,-7.187545181530681L14.639,-7.196544232645018L14.7482,-7.216976876885265L14.8901,-7.218508699984099L15.0443,-7.214046836651079L15.099,-7.207278695520253L15.1748,-7.214601727798077L15.2434,-7.228258045945993L15.3992,-7.231457290007766L15.5587,-7.24632876059156Z" />
    <path id="IT-88" class="regiao" data-nome="Sardegna" d="M8.3704,-7.428411365743111L8.4252,-7.427354167991522L8.4666,-7.415167743327514L8.4444,-7.395940320562078L8.3594,-7.411190070222176L8.3704,-7.428411365743111Z M8.3083,-7.443895020874484L8.3057,-7.425217494159339L8.2187,-7.43608378557453L8.3083,-7.443895020874484Z M9.2315,-7.918341962878443L9.2866,-7.901032073326563L9.4244,-7.899663902533103L9.548,-7.889394960762584L9.5415,-7.872488344072812L9.61,-7.858675917194339L9.5636,-7.840209500136789L9.6602,-7.829703555778966L9.6726,-7.808897708989839L9.7546,-7.783056660218155L9.7551,-7.765577616293821L9.8288,-7.749955306712206L9.7675,-7.71862066878962L9.6906,-7.707144180866633L9.6274,-7.688195716795224L9.6542,-7.662647466632548L9.7332,-7.643616485887383L9.6869,-7.623720506852475L9.6969,-7.595708714749534L9.6701,-7.579734265351527L9.6789,-7.563821505001991L9.6469,-7.550032943122647L9.647,-7.50688600842108L9.5989,-7.481248654958018L9.6033,-7.4681411552256804L9.5582,-7.432190861976695L9.4375,-7.430143522969078L9.2962,-7.450538729310393L9.2095,-7.453715182491424L9.0672,-7.447317871428176L9.0176,-7.436533896242226L9.0453,-7.415347548708536L8.9961,-7.3998019072286L8.8578,-7.375390899258273L8.6217,-7.390441423385151L8.5722,-7.398342476425759L8.5639,-7.41289787555959L8.4837,-7.422743810421439L8.3673,-7.45078651477307L8.4238,-7.463721801799016L8.419,-7.477683059027412L8.372,-7.487546834741847L8.4106,-7.498252741734946L8.3846,-7.50903376057308L8.4512,-7.5262489815197045L8.4922,-7.566226675520542L8.5457,-7.582936934949073L8.5238,-7.607034798443671L8.4395,-7.600824902732109L8.3968,-7.6078993756647275L8.412,-7.633357647786832L8.489,-7.647242895195554L8.456,-7.6692247420407L8.482,-7.694303373678712L8.3786,-7.711220678737215L8.4009,-7.722700198829648L8.2997,-7.763945721026549L8.2042,-7.758798341616511L8.1451,-7.771601039936328L8.2061,-7.7856802342745475L8.1336,-7.796386306115643L8.1678,-7.804403487586717L8.2338,-7.837992259700695L8.3143,-7.822849724011281L8.4561,-7.817175138209271L8.5622,-7.819896831253857L8.6954,-7.838754399784294L8.7932,-7.8412951415255L9.012,-7.887286398050984L9.1072,-7.889557170008098L9.1679,-7.897716210964578L9.1644,-7.913258325433393L9.2315,-7.918341962878443Z" />
</svg>